<?xml version="1.0" encoding="UTF-8" standalone="no"?>
<!-- Created with Inkscape (http://www.inkscape.org/) -->

<svg
   xmlns:dc="http://purl.org/dc/elements/1.1/"
   xmlns:cc="http://creativecommons.org/ns#"
   xmlns:rdf="http://www.w3.org/1999/02/22-rdf-syntax-ns#"
   xmlns:svg="http://www.w3.org/2000/svg"
   xmlns="http://www.w3.org/2000/svg"
   xmlns:sodipodi="http://sodipodi.sourceforge.net/DTD/sodipodi-0.dtd"
   xmlns:inkscape="http://www.inkscape.org/namespaces/inkscape"
   width="744.09448819"
   height="1052.3622047"
   id="svg2"
   version="1.1"
   inkscape:version="0.48.2 r9819"
   sodipodi:docname="New document 1">
  <defs
     id="defs4">
    <clipPath
       clipPathUnits="userSpaceOnUse"
       id="clipPath3855">
      <rect
         style="fill:#000000;fill-opacity:1;stroke:#000000;stroke-width:0;stroke-linecap:butt;stroke-linejoin:miter;stroke-miterlimit:4;stroke-opacity:1;stroke-dasharray:none;stroke-dashoffset:638.64723206;display:inline"
         id="rect3857"
         width="112.77036"
         height="112.77036"
         x="130.74559"
         y="82.041481" />
    </clipPath>
    <clipPath
       clipPathUnits="userSpaceOnUse"
       id="clipPath3855-9">
      <rect
         style="fill:#000000;fill-opacity:1;stroke:#000000;stroke-width:0;stroke-linecap:butt;stroke-linejoin:miter;stroke-miterlimit:4;stroke-opacity:1;stroke-dasharray:none;stroke-dashoffset:638.64723206;display:inline"
         id="rect3857-4"
         width="112.77036"
         height="112.77036"
         x="130.74559"
         y="82.041481" />
    </clipPath>
    <clipPath
       clipPathUnits="userSpaceOnUse"
       id="clipPath3855-8">
      <rect
         style="fill:#000000;fill-opacity:1;stroke:#000000;stroke-width:0;stroke-linecap:butt;stroke-linejoin:miter;stroke-miterlimit:4;stroke-opacity:1;stroke-dasharray:none;stroke-dashoffset:638.64723206;display:inline"
         id="rect3857-2"
         width="112.77036"
         height="112.77036"
         x="130.74559"
         y="82.041481" />
    </clipPath>
    <clipPath
       clipPathUnits="userSpaceOnUse"
       id="clipPath3855-8-5">
      <rect
         style="fill:#000000;fill-opacity:1;stroke:#000000;stroke-width:0;stroke-linecap:butt;stroke-linejoin:miter;stroke-miterlimit:4;stroke-opacity:1;stroke-dasharray:none;stroke-dashoffset:638.64723206;display:inline"
         id="rect3857-2-5"
         width="112.77036"
         height="112.77036"
         x="130.74559"
         y="82.041481" />
    </clipPath>
    <clipPath
       clipPathUnits="userSpaceOnUse"
       id="clipPath5650">
      <rect
         style="fill:#280b0b;fill-opacity:1;stroke:#000000;stroke-width:0;stroke-linecap:butt;stroke-linejoin:miter;stroke-miterlimit:4;stroke-opacity:1;stroke-dasharray:none;stroke-dashoffset:638.64723206;display:inline"
         id="rect5652"
         width="152.02795"
         height="152.02795"
         x="111.11678"
         y="62.412693" />
    </clipPath>
    <clipPath
       clipPathUnits="userSpaceOnUse"
       id="clipPath5654">
      <rect
         style="fill:#280b0b;fill-opacity:1;stroke:#000000;stroke-width:0;stroke-linecap:butt;stroke-linejoin:miter;stroke-miterlimit:4;stroke-opacity:1;stroke-dasharray:none;stroke-dashoffset:638.64723206;display:inline"
         id="rect5656"
         width="152.02795"
         height="152.02795"
         x="111.11678"
         y="62.412693" />
    </clipPath>
    <clipPath
       clipPathUnits="userSpaceOnUse"
       id="clipPath5658">
      <rect
         style="fill:#280b0b;fill-opacity:1;stroke:#000000;stroke-width:0;stroke-linecap:butt;stroke-linejoin:miter;stroke-miterlimit:4;stroke-opacity:1;stroke-dasharray:none;stroke-dashoffset:638.64723206;display:inline"
         id="rect5660"
         width="152.02795"
         height="152.02795"
         x="111.11678"
         y="62.412693" />
    </clipPath>
    <clipPath
       clipPathUnits="userSpaceOnUse"
       id="clipPath5662">
      <rect
         style="fill:#280b0b;fill-opacity:1;stroke:#000000;stroke-width:0;stroke-linecap:butt;stroke-linejoin:miter;stroke-miterlimit:4;stroke-opacity:1;stroke-dasharray:none;stroke-dashoffset:638.64723206;display:inline"
         id="rect5664"
         width="152.02795"
         height="152.02795"
         x="111.11678"
         y="62.412693" />
    </clipPath>
    <clipPath
       clipPathUnits="userSpaceOnUse"
       id="clipPath5666">
      <rect
         style="fill:#280b0b;fill-opacity:1;stroke:#000000;stroke-width:0;stroke-linecap:butt;stroke-linejoin:miter;stroke-miterlimit:4;stroke-opacity:1;stroke-dasharray:none;stroke-dashoffset:638.64723206;display:inline"
         id="rect5668"
         width="152.02795"
         height="152.02795"
         x="111.11678"
         y="62.412693" />
    </clipPath>
    <clipPath
       clipPathUnits="userSpaceOnUse"
       id="clipPath5670">
      <rect
         style="fill:#280b0b;fill-opacity:1;stroke:#000000;stroke-width:0;stroke-linecap:butt;stroke-linejoin:miter;stroke-miterlimit:4;stroke-opacity:1;stroke-dasharray:none;stroke-dashoffset:638.64723206;display:inline"
         id="rect5672"
         width="152.02795"
         height="152.02795"
         x="111.11678"
         y="62.412693" />
    </clipPath>
    <clipPath
       clipPathUnits="userSpaceOnUse"
       id="clipPath5674">
      <rect
         style="fill:#280b0b;fill-opacity:1;stroke:#000000;stroke-width:0;stroke-linecap:butt;stroke-linejoin:miter;stroke-miterlimit:4;stroke-opacity:1;stroke-dasharray:none;stroke-dashoffset:638.64723206;display:inline"
         id="rect5676"
         width="152.02795"
         height="152.02795"
         x="111.11678"
         y="62.412693" />
    </clipPath>
    <clipPath
       clipPathUnits="userSpaceOnUse"
       id="clipPath5678">
      <rect
         style="fill:#280b0b;fill-opacity:1;stroke:#000000;stroke-width:0;stroke-linecap:butt;stroke-linejoin:miter;stroke-miterlimit:4;stroke-opacity:1;stroke-dasharray:none;stroke-dashoffset:638.64723206;display:inline"
         id="rect5680"
         width="152.02795"
         height="152.02795"
         x="111.11678"
         y="62.412693" />
    </clipPath>
    <clipPath
       clipPathUnits="userSpaceOnUse"
       id="clipPath5682">
      <rect
         style="fill:#280b0b;fill-opacity:1;stroke:#000000;stroke-width:0;stroke-linecap:butt;stroke-linejoin:miter;stroke-miterlimit:4;stroke-opacity:1;stroke-dasharray:none;stroke-dashoffset:638.64723206;display:inline"
         id="rect5684"
         width="152.02795"
         height="152.02795"
         x="111.11678"
         y="62.412693" />
    </clipPath>
    <clipPath
       clipPathUnits="userSpaceOnUse"
       id="clipPath5686">
      <rect
         style="fill:#280b0b;fill-opacity:1;stroke:#000000;stroke-width:0;stroke-linecap:butt;stroke-linejoin:miter;stroke-miterlimit:4;stroke-opacity:1;stroke-dasharray:none;stroke-dashoffset:638.64723206;display:inline"
         id="rect5688"
         width="152.02795"
         height="152.02795"
         x="111.11678"
         y="62.412693" />
    </clipPath>
    <clipPath
       clipPathUnits="userSpaceOnUse"
       id="clipPath5690">
      <rect
         style="fill:#280b0b;fill-opacity:1;stroke:#000000;stroke-width:0;stroke-linecap:butt;stroke-linejoin:miter;stroke-miterlimit:4;stroke-opacity:1;stroke-dasharray:none;stroke-dashoffset:638.64723206;display:inline"
         id="rect5692"
         width="152.02795"
         height="152.02795"
         x="111.11678"
         y="62.412693" />
    </clipPath>
    <clipPath
       clipPathUnits="userSpaceOnUse"
       id="clipPath5694">
      <rect
         style="fill:#280b0b;fill-opacity:1;stroke:#000000;stroke-width:0;stroke-linecap:butt;stroke-linejoin:miter;stroke-miterlimit:4;stroke-opacity:1;stroke-dasharray:none;stroke-dashoffset:638.64723206;display:inline"
         id="rect5696"
         width="152.02795"
         height="152.02795"
         x="111.11678"
         y="62.412693" />
    </clipPath>
    <clipPath
       clipPathUnits="userSpaceOnUse"
       id="clipPath5698">
      <rect
         style="fill:#280b0b;fill-opacity:1;stroke:#000000;stroke-width:0;stroke-linecap:butt;stroke-linejoin:miter;stroke-miterlimit:4;stroke-opacity:1;stroke-dasharray:none;stroke-dashoffset:638.64723206;display:inline"
         id="rect5700"
         width="152.02795"
         height="152.02795"
         x="111.11678"
         y="62.412693" />
    </clipPath>
    <clipPath
       clipPathUnits="userSpaceOnUse"
       id="clipPath5702">
      <rect
         style="fill:#280b0b;fill-opacity:1;stroke:#000000;stroke-width:0;stroke-linecap:butt;stroke-linejoin:miter;stroke-miterlimit:4;stroke-opacity:1;stroke-dasharray:none;stroke-dashoffset:638.64723206;display:inline"
         id="rect5704"
         width="152.02795"
         height="152.02795"
         x="111.11678"
         y="62.412693" />
    </clipPath>
  </defs>
  <sodipodi:namedview
     id="base"
     pagecolor="#ffffff"
     bordercolor="#666666"
     borderopacity="1.0"
     inkscape:pageopacity="0.0"
     inkscape:pageshadow="2"
     inkscape:zoom="2.8"
     inkscape:cx="117.04209"
     inkscape:cy="905.02832"
     inkscape:document-units="px"
     inkscape:current-layer="layer4"
     showgrid="false"
     inkscape:window-width="1920"
     inkscape:window-height="1018"
     inkscape:window-x="-8"
     inkscape:window-y="-8"
     inkscape:window-maximized="1" />
  <metadata
     id="metadata7">
    <rdf:RDF>
      <cc:Work
         rdf:about="">
        <dc:format>image/svg+xml</dc:format>
        <dc:type
           rdf:resource="http://purl.org/dc/dcmitype/StillImage" />
        <dc:title></dc:title>
      </cc:Work>
    </rdf:RDF>
  </metadata>
  <g
     inkscape:groupmode="layer"
     id="layer2"
     inkscape:label="MainRect"
     style="display:inline">
    <rect
       style="fill:#ffcc00;fill-opacity:1;stroke:#000000;stroke-width:0;stroke-linecap:butt;stroke-linejoin:miter;stroke-miterlimit:4;stroke-opacity:1;stroke-dasharray:none;stroke-dashoffset:638.64723206"
       id="rect2985"
       width="152.02795"
       height="152.02795"
       x="111.11678"
       y="62.412689"
       inkscape:export-xdpi="18.931799"
       inkscape:export-ydpi="18.931799"
       inkscape:export-filename="C:\Users\Sam\Documents\Projects\Runner\unfinishedart\crate.png" />
  </g>
  <g
     inkscape:groupmode="layer"
     id="layer4"
     inkscape:label="woodlines"
     style="display:inline">
    <path
       style="fill:none;stroke:#d4aa00;stroke-width:3;stroke-linecap:butt;stroke-linejoin:miter;stroke-miterlimit:4;stroke-opacity:1;stroke-dasharray:none;display:inline"
       d="m 116.42008,61.907611 c 0,0.505076 0,1.010152 0,1.515229 0,0.08418 -0.0595,0.193014 0,0.252538 0.0595,0.05952 0.19302,-0.05952 0.25254,0 0.0782,0.0782 -0.0782,1.184493 0,1.26269 0.0595,0.05952 0.19301,-0.05952 0.25254,0 0.0595,0.05952 0,0.168359 0,0.252539 0,0.420897 0,0.841793 0,1.26269 0,0.08418 -0.0595,0.193015 0,0.252538 0.0595,0.05952 0.19301,-0.05952 0.25254,0 0.0595,0.05952 0,0.168359 0,0.252539 0,0.08418 0,0.168358 0,0.252538 0,0.505076 0,1.010152 0,1.515229 0,0.08418 0,0.168358 0,0.252538 0,0.08418 -0.0376,0.177245 0,0.252538 0.0532,0.106479 0.19929,0.146059 0.25253,0.252538 0.0376,0.07529 0,0.168359 0,0.252538 0,0.179 -0.0326,1.449935 0,1.515229 0.0532,0.106479 0.1993,0.146059 0.25254,0.252538 0.0376,0.07529 0,0.168359 0,0.252538 0,0.179 -0.0327,1.449935 0,1.515229 0.0532,0.106479 0.1993,0.146059 0.25254,0.252538 0.0376,0.07529 0,0.168359 0,0.252538 0,0.08418 0,0.168359 0,0.252538 0,0.505077 0,1.010153 0,1.515229 0,0.08418 0,0.168359 0,0.252538 0,0.08418 -0.0595,0.193015 0,0.252539 0.0595,0.05952 0.19301,-0.05952 0.25254,0 0.0595,0.05952 0,0.168358 0,0.252538 0,0.420897 0,0.841793 0,1.26269 0,0.673435 0,1.34687 0,2.020305 0,0.08418 -0.0595,0.193015 0,0.252539 0.0595,0.05952 0.19301,-0.05952 0.25254,0 0.0595,0.05952 0,0.168358 0,0.252538 0,0.08418 0,0.168358 0,0.252538 0,1.178511 0,2.357022 0,3.535534 0,0.09274 -0.0102,0.99999 0,1.010152 0.0595,0.05952 0.19301,-0.05952 0.25253,0 0.0595,0.05952 0,0.168359 0,0.252538 0,0.168359 0,0.336718 0,0.505077 0,1.599408 0,3.198816 0,4.798224 0,1.34687 0,2.69374 0,4.04061 0,0.06125 -0.008,0.749493 0,0.757615 0.0595,0.05952 0.19302,-0.05952 0.25254,0 0.0102,0.01016 0,0.917411 0,1.010152 0,2.104485 0,4.208973 0,6.313453 0,2.60956 0,5.21912 0,7.82868 0,0.92598 0,1.85195 0,2.77792 0,0.2257 0.0402,1.18222 0,1.26269 -0.0532,0.10648 -0.1993,0.14606 -0.25254,0.25254 -0.0376,0.0753 0,0.16836 0,0.25254 0,0.16836 0,0.33672 0,0.50508 0,0.41107 0.0343,0.85138 0,1.26269 -0.0772,0.92658 -0.18629,1.85049 -0.25253,2.77792 -0.0353,0.49378 0,1.01664 0,1.51522 0,0.92598 0,1.85195 0,2.77792 0,0.0613 0.008,0.7495 0,0.75762 -0.0595,0.0595 -0.19302,-0.0595 -0.25254,0 -0.0595,0.0595 0,0.16836 0,0.25254 0,0.33671 0,0.67343 0,1.01015 0,0.0842 0.0595,0.19301 0,0.25254 -0.0595,0.0595 -0.19302,-0.0595 -0.25254,0 -0.0595,0.0595 0,0.16836 0,0.25254 0,0.0842 0,0.16835 0,0.25253 0,1.17852 0,2.35703 0,3.53554 0,0.0842 0,0.16836 0,0.25254 0,0.0842 0.0595,0.19301 0,0.25253 -0.0595,0.0595 -0.19301,-0.0595 -0.25254,0 -0.0102,0.0102 0,0.91742 0,1.01016 0,0.84179 0,1.68358 0,2.52538 0,0.35513 0.055,0.93285 0,1.26269 -0.0706,0.42339 -0.18197,0.8393 -0.25254,1.26269 -0.0348,0.20913 0.0593,0.89161 0,1.01015 -0.0532,0.10648 -0.21489,0.1396 -0.25253,0.25254 -0.0482,0.1447 0,1.0256 0,1.26269 0,0.92597 0,1.85195 0,2.77792 0,0.2257 0.0402,1.18221 0,1.26269 -0.0532,0.10648 -0.2149,0.1396 -0.25254,0.25254 -0.0799,0.23958 0,0.50508 0,0.75761 0,0.58926 0,1.17851 0,1.76777 0,0.25254 0.0799,0.51804 0,0.75761 -0.0376,0.11294 -0.1993,0.14606 -0.25254,0.25254 -0.0402,0.0805 0,1.03699 0,1.26269 0,0.8418 0,1.68359 0,2.52538 0,1.93613 0,3.87226 0,5.80838 0,2.27285 0,4.54569 0,6.81853 0,0.8418 0,1.68359 0,2.52538 0,0.13206 -0.0332,0.94375 0,1.01016 0.0532,0.10648 0.1993,0.14605 0.25254,0.25253 0.0384,0.0769 0,0.64389 0,0.75762 0,0.58925 0,1.17851 0,1.76777 0,0.25253 0,0.50507 0,0.75761 0,0.0842 -0.0266,0.17268 0,0.25254 0.0595,0.17857 0.19301,0.3265 0.25254,0.50507 0.0678,0.20327 -0.0807,0.84878 0,1.01016 0.0532,0.10648 0.19929,0.14606 0.25253,0.25253 0.044,0.0881 0,1.32985 0,1.51523 0,0.0842 -0.0376,0.17725 0,0.25254 0.0532,0.10648 0.1993,0.14606 0.25254,0.25254 0.0753,0.15058 -0.0532,0.34536 0,0.50508 0.0595,0.17857 0.19302,0.3265 0.25254,0.50507 0.0549,0.16482 0,1.21329 0,1.51523 0,0.0842 0,0.16836 0,0.25254 0,0.0842 -0.0595,0.19301 0,0.25254 0.0595,0.0595 0.19301,-0.0595 0.25254,0 0.0595,0.0595 0,0.16836 0,0.25254 0,0.0842 0,0.16835 0,0.25253 0,1.17851 0,2.35703 0,3.53554 0,0.179 -0.0327,1.44993 0,1.51523 0.0532,0.10648 0.1993,0.14606 0.25254,0.25253 0.0384,0.0769 0,0.64389 0,0.75762 0,0.58925 0,1.17851 0,1.76777 0,1.43105 0,2.86209 0,4.29314 0,0.0927 -0.0102,0.99999 0,1.01016 0.0595,0.0595 0.19301,-0.0595 0.25253,0 0.0887,0.0886 -0.0872,1.08825 0,1.26269 0.0532,0.10648 0.1993,0.14606 0.25254,0.25254 0.0376,0.0753 0,0.16835 0,0.25253 0,0.16836 0,0.33672 0,0.50508 0,0.4209 0,0.84179 0,1.26269 0,1.68359 0,3.36718 0,5.05076 0,1.17851 0,2.35703 0,3.53554 0,0.0842 0,0.16836 0,0.25254 0,0.0842 0.0595,0.19301 0,0.25253 -0.0595,0.0595 -0.19301,-0.0595 -0.25254,0 -0.0595,0.0595 0,0.16836 0,0.25254 0,0.0842 0,0.16836 0,0.25254 0,0.50508 0,1.01015 0,1.51523 0,0.0842 0,0.16836 0,0.25254 0,0.0842 0.0376,0.17724 0,0.25253 -0.0532,0.10648 -0.19929,0.14606 -0.25253,0.25254 -0.0457,0.0913 0,1.08704 0,1.26269 0,0.11908 0.0114,1.25125 0,1.26269 -0.0595,0.0595 -0.19302,-0.0595 -0.25254,0 -0.0595,0.0595 0,0.16836 0,0.25254 0,0.17565 0.0457,1.17137 0,1.26269 -0.0532,0.10648 -0.1993,0.14606 -0.25254,0.25254 -0.0753,0.15059 0.11905,0.38603 0,0.50508 -0.0595,0.0595 -0.19301,-0.0595 -0.25254,0 -0.0516,0.0516 0.0501,0.65748 0,0.75761 -0.0532,0.10648 -0.1993,0.14606 -0.25254,0.25254 -0.0501,0.10013 0.0516,0.70599 0,0.75761 -0.0595,0.0595 -0.19301,-0.0595 -0.25253,0 -0.0841,0.0841 0.0841,0.42095 0,0.50508 -0.0595,0.0595 -0.19302,-0.0595 -0.25254,0 -0.0102,0.0102 0,0.91741 0,1.01015"
       id="path5469"
       inkscape:connector-curvature="0"
       clip-path="url(#clipPath5702)"
       inkscape:export-filename="C:\Users\Sam\Documents\Projects\Runner\unfinishedart\crate.png"
       inkscape:export-xdpi="18.931799"
       inkscape:export-ydpi="18.931799" />
    <path
       style="fill:none;stroke:#d4aa00;stroke-width:1px;stroke-linecap:butt;stroke-linejoin:miter;stroke-opacity:1;display:inline"
       d="m 124.94325,62.16015 c 0,0.505076 0,1.010152 0,1.515229 0,0.08418 -0.0595,0.193014 0,0.252538 0.0595,0.05952 0.19302,-0.05952 0.25254,0 0.0782,0.0782 -0.0782,1.184493 0,1.26269 0.0595,0.05952 0.19301,-0.05952 0.25254,0 0.0595,0.05952 0,0.168359 0,0.252539 0,0.420897 0,0.841793 0,1.26269 0,0.08418 -0.0595,0.193015 0,0.252538 0.0595,0.05952 0.19301,-0.05952 0.25254,0 0.0595,0.05952 0,0.168359 0,0.252539 0,0.08418 0,0.168358 0,0.252538 0,0.505076 -0.37881,1.010152 -0.37881,1.515229 0,0.08418 0,0.168358 0,0.252538 0,0.08418 -0.29014,0.303514 -0.25254,0.378807 0.0532,0.106479 0.19929,0.146059 0.25253,0.252538 0.0376,0.07529 0,0.168359 0,0.252538 0,0.179 -0.0326,1.449935 0,1.515229 0.0532,0.106479 0.1993,0.146059 0.25254,0.252538 0.0376,0.07529 0,0.168359 0,0.252538 0,0.179 -0.0327,1.449935 0,1.515229 0.0532,0.106479 0.1993,0.146059 0.25254,0.252538 0.0376,0.07529 0,0.168359 0,0.252538 0,0.08418 0,0.168359 0,0.252538 0,0.505077 0,1.010153 0,1.515229 0,0.08418 0,0.168359 0,0.252538 0,0.08418 -0.0595,0.193015 0,0.252539 0.0595,0.05952 0.19301,-0.05952 0.25254,0 0.0595,0.05952 0,0.168358 0,0.252538 0,0.420897 0,0.841793 0,1.26269 0,0.673435 -0.56821,1.34687 -0.56821,2.020305 0,0.08418 -0.0595,0.193015 0,0.252539 0.0595,0.05952 0.19301,-0.05952 0.25254,0 0.0595,0.05952 0,0.168358 0,0.252538 0,0.08418 0,0.168358 0,0.252538 0,1.178511 1.07329,2.357022 1.07329,3.535534 0,0.09274 -0.0102,0.99999 0,1.010152 0.0595,0.05952 0.19301,-0.05952 0.25253,0 0.0595,0.05952 0,0.168359 0,0.252538 0,0.168359 0,0.336718 0,0.505077 0,1.599408 -1.07329,3.198816 -1.07329,4.798224 0,1.34687 0,2.69374 0,4.04061 0,0.06125 -0.008,0.749493 0,0.757615 0.0595,0.05952 0.19302,-0.05952 0.25254,0 0.0102,0.01016 0,0.917411 0,1.010152 0,2.104485 0,4.208975 0,6.313455 0,2.60956 0,5.21912 0,7.82868 0,0.92598 -1.89404,1.85195 -1.89404,2.77792 0,0.2257 0.0402,1.18222 0,1.26269 -0.0532,0.10648 -0.1993,0.14606 -0.25254,0.25254 -0.0376,0.0753 0,0.16836 0,0.25254 0,0.16836 0,0.33672 0,0.50508 0,0.41107 0.0343,0.85138 0,1.26269 -0.0772,0.92658 1.70775,1.85049 1.64151,2.77792 -0.0353,0.49378 0,1.01664 0,1.51522 0,0.92598 0,1.85195 0,2.77792 0,0.0613 0.008,0.7495 0,0.75762 -0.0595,0.0595 -0.19302,-0.0595 -0.25254,0 -0.0595,0.0595 0,0.16836 0,0.25254 0,0.33671 0,0.67343 0,1.01015 0,0.0842 0.0595,0.19301 0,0.25254 -0.0595,0.0595 -0.19302,-0.0595 -0.25254,0 -0.0595,0.0595 0,0.16836 0,0.25254 0,0.0842 0,0.16835 0,0.25253 0,1.17852 0,2.35703 0,3.53554 0,0.0842 0,0.16836 0,0.25254 0,0.0842 0.0595,0.19301 0,0.25253 -0.0595,0.0595 -0.19301,-0.0595 -0.25254,0 -0.0102,0.0102 0,0.91742 0,1.01016 0,0.84179 0,1.68358 0,2.52538 0,0.35513 0.055,0.93285 0,1.26269 -0.0706,0.42339 -0.18197,0.8393 -0.25254,1.26269 -0.0348,0.20913 0.0593,0.89161 0,1.01015 -0.0532,0.10648 -0.21489,0.1396 -0.25253,0.25254 -0.0482,0.1447 0,1.0256 0,1.26269 0,0.92597 0,1.85195 0,2.77792 0,0.2257 0.0402,1.18221 0,1.26269 -0.0532,0.10648 -0.2149,0.1396 -0.25254,0.25254 -0.0799,0.23958 0,0.50508 0,0.75761 0,0.58926 0.56821,1.17851 0.56821,1.76777 0,0.25254 0.0799,0.51804 0,0.75761 -0.0376,0.11294 -0.1993,0.14606 -0.25254,0.25254 -0.0402,0.0805 0,1.03699 0,1.26269 0,0.8418 0,1.68359 0,2.52538 0,1.93613 0,3.87226 0,5.80838 0,2.27285 0,4.54569 0,6.81853 0,0.8418 -0.56821,1.68359 -0.56821,2.52538 0,0.13206 -0.0332,0.94375 0,1.01016 0.0532,0.10648 0.1993,0.14605 0.25254,0.25253 0.0384,0.0769 0,0.64389 0,0.75762 0,0.58925 0,1.17851 0,1.76777 0,0.25253 0,0.50507 0,0.75761 0,0.0842 -0.0266,0.17268 0,0.25254 0.0595,0.17857 0.19301,0.3265 0.25254,0.50507 0.0678,0.20327 -0.0807,0.84878 0,1.01016 0.0532,0.10648 0.19929,0.14606 0.25253,0.25253 0.044,0.0881 0,1.32985 0,1.51523 0,0.0842 -0.0376,0.17725 0,0.25254 0.0532,0.10648 0.1993,0.14606 0.25254,0.25254 0.0753,0.15058 -0.0532,0.34536 0,0.50508 0.0595,0.17857 0.19302,0.3265 0.25254,0.50507 0.0549,0.16482 0,1.21329 0,1.51523 0,0.0842 0,0.16836 0,0.25254 0,0.0842 -0.0595,0.19301 0,0.25254 0.0595,0.0595 0.19301,-0.0595 0.25254,0 0.0595,0.0595 0,0.16836 0,0.25254 0,0.0842 0,0.16835 0,0.25253 0,1.17851 0,2.35703 0,3.53554 0,0.179 -0.0327,1.44993 0,1.51523 0.0532,0.10648 0.1993,0.14606 0.25254,0.25253 0.0384,0.0769 0,0.64389 0,0.75762 0,0.58925 0,1.17851 0,1.76777 0,1.43105 0,2.86209 0,4.29314 0,0.0927 -0.0102,0.99999 0,1.01016 0.0595,0.0595 0.19301,-0.0595 0.25253,0 0.0887,0.0886 -0.0872,1.08825 0,1.26269 0.0532,0.10648 0.1993,0.14606 0.25254,0.25254 0.0376,0.0753 0,0.16835 0,0.25253 0,0.16836 0,0.33672 0,0.50508 0,0.4209 0,0.84179 0,1.26269 0,1.68359 0,3.36718 0,5.05076 0,1.17851 0,2.35703 0,3.53554 0,0.0842 0,0.16836 0,0.25254 0,0.0842 0.0595,0.19301 0,0.25253 -0.0595,0.0595 -0.19301,-0.0595 -0.25254,0 -0.0595,0.0595 0,0.16836 0,0.25254 0,0.0842 0,0.16836 0,0.25254 0,0.50508 0,1.01015 0,1.51523 0,0.0842 0,0.16836 0,0.25254 0,0.0842 0.0376,0.17724 0,0.25253 -0.0532,0.10648 -0.19929,0.14606 -0.25253,0.25254 -0.0457,0.0913 0,1.08704 0,1.26269 0,0.11908 0.0114,1.25125 0,1.26269 -0.0595,0.0595 -0.19302,-0.0595 -0.25254,0 -0.0595,0.0595 0,0.16836 0,0.25254 0,0.17565 0.0457,1.17137 0,1.26269 -0.0532,0.10648 -0.1993,0.14606 -0.25254,0.25254 -0.0753,0.15059 0.11905,0.38603 0,0.50508 -0.0595,0.0595 -0.19301,-0.0595 -0.25254,0 -0.0516,0.0516 0.0501,0.65748 0,0.75761 -0.0532,0.10648 -0.1993,0.14606 -0.25254,0.25254 -0.0501,0.10013 0.0516,0.70599 0,0.75761 -0.0595,0.0595 -0.19301,-0.0595 -0.25253,0 -0.0841,0.0841 0.0841,0.42095 0,0.50508 -0.0595,0.0595 -0.19302,-0.0595 -0.25254,0 -0.0102,0.0102 0,0.91741 0,1.01015"
       id="path5469-6"
       inkscape:connector-curvature="0"
       sodipodi:nodetypes="cscsccssccssssccsccsccssssccsssccsssccssssccssssccssccssccssccssssccssscccssccssccsssssccsssccccsccccssccsssccsssccccssssssccssssccsccsccscccccccc"
       clip-path="url(#clipPath5698)"
       inkscape:export-filename="C:\Users\Sam\Documents\Projects\Runner\unfinishedart\crate.png"
       inkscape:export-xdpi="18.931799"
       inkscape:export-ydpi="18.931799" />
    <path
       style="fill:none;stroke:#d4aa00;stroke-width:1px;stroke-linecap:butt;stroke-linejoin:miter;stroke-opacity:1;display:inline"
       d="m 132.58252,62.033882 c 0,0.505076 0,1.010152 0,1.515229 0,0.08418 -0.0595,0.193014 0,0.252538 0.0595,0.05952 0.19302,-0.05952 0.25254,0 0.0782,0.0782 -0.0782,1.184493 0,1.26269 0.0595,0.05952 0.19301,-0.05952 0.25254,0 0.0595,0.05952 0,0.168359 0,0.252539 0,0.420897 0,0.841793 0,1.26269 0,0.08418 -0.0595,0.193015 0,0.252538 0.0595,0.05952 0.19301,-0.05952 0.25254,0 0.0595,0.05952 0,0.168359 0,0.252539 0,0.08418 -0.44194,0.168358 -0.44194,0.252538 0,0.505076 0,1.010152 0,1.515229 0,0.08418 0,0.168358 0,0.252538 0,0.08418 -0.0376,0.177245 0,0.252538 0.0532,0.106479 0.19929,0.146059 0.25253,0.252538 0.0376,0.07529 0,0.168359 0,0.252538 0,0.179 -0.0326,1.449935 0,1.515229 0.0532,0.106479 0.1993,0.146059 0.25254,0.252538 0.0376,0.07529 0,0.168359 0,0.252538 0,0.179 -0.0327,1.449935 0,1.515229 0.0532,0.106479 0.1993,0.146059 0.25254,0.252538 0.0376,0.07529 0,0.168359 0,0.252538 0,0.08418 0,0.168359 0,0.252538 0,0.505077 0.44194,1.010153 0.44194,1.515229 0,0.08418 0,0.168359 0,0.252538 0,0.08418 -0.0595,0.193015 0,0.252539 0.0595,0.05952 0.19301,-0.05952 0.25254,0 0.0595,0.05952 0,0.168358 0,0.252538 0,0.420897 0,0.841793 0,1.26269 0,0.673435 0,1.34687 0,2.020305 0,0.08418 -0.0595,0.193015 0,0.252539 0.0595,0.05952 0.19301,-0.05952 0.25254,0 0.0595,0.05952 0,0.168358 0,0.252538 0,0.08418 0,0.168358 0,0.252538 0,1.178511 1.13642,2.357022 1.13642,3.535534 0,0.09274 -0.0102,0.99999 0,1.010152 0.0595,0.05952 0.19301,-0.05952 0.25253,0 0.0595,0.05952 0,0.168359 0,0.252538 0,0.168359 0,0.336718 0,0.505077 0,1.599408 -1.13642,3.198816 -1.13642,4.798224 0,1.34687 0,2.69374 0,4.04061 0,0.06125 -0.008,0.749493 0,0.757615 0.0595,0.05952 0.19302,-0.05952 0.25254,0 0.0102,0.01016 0,0.917411 0,1.010152 0,2.104485 0,4.208972 0,6.313452 0,2.60956 0,5.21912 0,7.82868 0,0.92598 -0.56821,1.85195 -0.56821,2.77792 0,0.2257 0.0402,1.18222 0,1.26269 -0.0532,0.10648 -0.1993,0.14606 -0.25254,0.25254 -0.0376,0.0753 0,0.16836 0,0.25254 0,0.16836 0,0.33672 0,0.50508 0,0.41107 0.0343,0.85138 0,1.26269 -0.0772,0.92658 -0.18629,1.85049 -0.25253,2.77792 -0.0353,0.49378 0.56821,1.01664 0.56821,1.51522 0,0.92598 0,1.85195 0,2.77792 0,0.0613 0.008,0.7495 0,0.75762 -0.0595,0.0595 -0.19302,-0.0595 -0.25254,0 -0.0595,0.0595 0,0.16836 0,0.25254 0,0.33671 0,0.67343 0,1.01015 0,0.0842 0.0595,0.19301 0,0.25254 -0.0595,0.0595 -0.19302,-0.0595 -0.25254,0 -0.0595,0.0595 0,0.16836 0,0.25254 0,0.0842 0,0.16835 0,0.25253 0,1.17852 0,2.35703 0,3.53554 0,0.0842 0,0.16836 0,0.25254 0,0.0842 0.0595,0.19301 0,0.25253 -0.0595,0.0595 -0.19301,-0.0595 -0.25254,0 -0.0102,0.0102 0,0.91742 0,1.01016 0,0.84179 0,1.68358 0,2.52538 0,0.35513 0.055,0.93285 0,1.26269 -0.0706,0.42339 0.95445,0.8393 0.88388,1.26269 -0.0348,0.20913 0.0593,0.89161 0,1.01015 -0.0532,0.10648 -0.21489,0.1396 -0.25253,0.25254 -0.0482,0.1447 0,1.0256 0,1.26269 0,0.92597 0,1.85195 0,2.77792 0,0.2257 0.0402,1.18221 0,1.26269 -0.0532,0.10648 -0.2149,0.1396 -0.25254,0.25254 -0.0799,0.23958 0,0.50508 0,0.75761 0,0.58926 0,1.17851 0,1.76777 0,0.25254 0.0799,0.51804 0,0.75761 -0.0376,0.11294 -0.1993,0.14606 -0.25254,0.25254 -0.0402,0.0805 0,1.03699 0,1.26269 0,0.8418 0,1.68359 0,2.52538 0,1.93613 0,3.87226 0,5.80838 0,2.27285 -1.13642,4.54569 -1.13642,6.81853 0,0.8418 0,1.68359 0,2.52538 0,0.13206 -0.0332,0.94375 0,1.01016 0.0532,0.10648 0.1993,0.14605 0.25254,0.25253 0.0384,0.0769 0,0.64389 0,0.75762 0,0.58925 0,1.17851 0,1.76777 0,0.25253 0,0.50507 0,0.75761 0,0.0842 -0.0266,0.17268 0,0.25254 0.0595,0.17857 0.19301,0.3265 0.25254,0.50507 0.0678,0.20327 -0.0807,0.84878 0,1.01016 0.0532,0.10648 0.19929,0.14606 0.25253,0.25253 0.044,0.0881 0,1.32985 0,1.51523 0,0.0842 -0.0376,0.17725 0,0.25254 0.0532,0.10648 0.1993,0.14606 0.25254,0.25254 0.0753,0.15058 -0.0532,0.34536 0,0.50508 0.0595,0.17857 0.19302,0.3265 0.25254,0.50507 0.0549,0.16482 0,1.21329 0,1.51523 0,0.0842 0,0.16836 0,0.25254 0,0.0842 -0.0595,0.19301 0,0.25254 0.0595,0.0595 0.19301,-0.0595 0.25254,0 0.0595,0.0595 0,0.16836 0,0.25254 0,0.0842 0,0.16835 0,0.25253 0,1.17851 0,2.35703 0,3.53554 0,0.179 -0.0327,1.44993 0,1.51523 0.0532,0.10648 0.1993,0.14606 0.25254,0.25253 0.0384,0.0769 0,0.64389 0,0.75762 0,0.58925 0,1.17851 0,1.76777 0,1.43105 0,2.86209 0,4.29314 0,0.0927 -0.0102,0.99999 0,1.01016 0.0595,0.0595 0.19301,-0.0595 0.25253,0 0.0887,0.0886 -0.0872,1.08825 0,1.26269 0.0532,0.10648 0.1993,0.14606 0.25254,0.25254 0.0376,0.0753 0,0.16835 0,0.25253 0,0.16836 0,0.33672 0,0.50508 0,0.4209 0,0.84179 0,1.26269 0,1.68359 0,3.36718 0,5.05076 0,1.17851 0,2.35703 0,3.53554 0,0.0842 0,0.16836 0,0.25254 0,0.0842 0.0595,0.19301 0,0.25253 -0.0595,0.0595 -0.19301,-0.0595 -0.25254,0 -0.0595,0.0595 0,0.16836 0,0.25254 0,0.0842 0,0.16836 0,0.25254 0,0.50508 0,1.01015 0,1.51523 0,0.0842 0,0.16836 0,0.25254 0,0.0842 0.0376,0.17724 0,0.25253 -0.0532,0.10648 -0.19929,0.14606 -0.25253,0.25254 -0.0457,0.0913 0,1.08704 0,1.26269 0,0.11908 0.0114,1.25125 0,1.26269 -0.0595,0.0595 -0.19302,-0.0595 -0.25254,0 -0.0595,0.0595 0,0.16836 0,0.25254 0,0.17565 0.0457,1.17137 0,1.26269 -0.0532,0.10648 -0.1993,0.14606 -0.25254,0.25254 -0.0753,0.15059 0.11905,0.38603 0,0.50508 -0.0595,0.0595 -0.19301,-0.0595 -0.25254,0 -0.0516,0.0516 0.0501,0.65748 0,0.75761 -0.0532,0.10648 -0.1993,0.14606 -0.25254,0.25254 -0.0501,0.10013 0.0516,0.70599 0,0.75761 -0.0595,0.0595 -0.19301,-0.0595 -0.25253,0 -0.0841,0.0841 0.0841,0.42095 0,0.50508 -0.0595,0.0595 -0.19302,-0.0595 -0.25254,0 -0.0102,0.0102 0,0.91741 0,1.01015"
       id="path5469-6-1"
       inkscape:connector-curvature="0"
       sodipodi:nodetypes="cscsccssccssssccsccsccssssccsssccsssccssssccssssccssccssccssccssssccssscccssccssccsssssccsssccccsccccssccsssccsssccccssssssccssssccsccsccscccccccc"
       clip-path="url(#clipPath5694)"
       inkscape:export-filename="C:\Users\Sam\Documents\Projects\Runner\unfinishedart\crate.png"
       inkscape:export-xdpi="18.931799"
       inkscape:export-ydpi="18.931799" />
    <path
       style="fill:none;stroke:#d4aa00;stroke-width:1px;stroke-linecap:butt;stroke-linejoin:miter;stroke-opacity:1;display:inline"
       d="m 142.17897,62.033881 c 0,0.505076 0,1.010152 0,1.515229 0,0.08418 -0.0595,0.193014 0,0.252538 0.0595,0.05952 0.19302,-0.05952 0.25254,0 0.0782,0.0782 -0.0782,1.184493 0,1.26269 0.0595,0.05952 0.19301,-0.05952 0.25254,0 0.0595,0.05952 0,0.168359 0,0.252539 0,0.420897 1.09581,0.841793 1.09581,1.26269 0,0.08418 -0.0595,0.193015 0,0.252538 0.0595,0.05952 0.19301,-0.05952 0.25254,0 0.0595,0.05952 0,0.168359 0,0.252539 0,0.08418 0,0.168358 0,0.252538 0,0.505076 0,1.010152 0,1.515229 0,0.08418 0,0.168358 0,0.252538 0,0.08418 -0.0376,0.177245 0,0.252538 0.0532,0.106479 0.19929,0.146059 0.25253,0.252538 0.0376,0.07529 0,0.168359 0,0.252538 0,0.179 -0.0326,1.449935 0,1.515229 0.0532,0.106479 0.1993,0.146059 0.25254,0.252538 0.0376,0.07529 0.90419,2.168359 0.90419,2.252538 0,0.179 -0.0327,1.449935 0,1.515229 0.0532,0.106479 0.1993,0.146059 0.25254,0.252538 0.0376,0.07529 0,0.168359 0,0.252538 0,0.08418 0,0.168359 0,0.252538 -2.90265,-0.667415 -0.10596,2.709391 -1.74746,3.555839 0,0.08418 -0.0595,0.193015 0,0.252539 0.0595,0.05952 0.19301,-0.05952 0.25254,0 0.0595,0.05952 0,0.168358 0,0.252538 0,0.08418 0,0.168358 0,0.252538 0,1.178511 2.02031,2.357022 2.02031,3.535534 0,0.09274 -0.0102,0.99999 0,1.010152 0.0595,0.05952 0.19301,-0.05952 0.25253,0 0.0595,0.05952 0,0.168359 0,0.252538 0,0.168359 0,0.336718 0,0.505077 0,1.599408 -0.88389,3.198816 -0.88389,4.798224 0,1.34687 0,2.69374 0,4.04061 0,0.06125 -0.008,0.749495 0,0.757615 0.0595,0.0595 0.19302,-0.0595 0.25254,0 0.0102,0.0102 0,0.91741 0,1.01015 0,2.10449 -1.13642,4.208975 -1.13642,6.313455 0,2.60956 0.50508,5.21912 0.50508,7.82868 0,0.92598 0,1.85195 0,2.77792 0,0.2257 0.0402,1.18222 0,1.26269 -0.0532,0.10648 -0.1993,0.14606 -0.25254,0.25254 -0.0376,0.0753 0,0.16836 0,0.25254 0,0.16836 0,0.33672 0,0.50508 0,0.41107 0.0343,0.85138 0,1.26269 -0.0772,0.92658 -0.18629,1.85049 -0.25253,2.77792 -0.0353,0.49378 0,1.01664 0,1.51522 0,0.92598 -0.50508,1.85195 -0.50508,2.77792 0,0.0613 0.008,0.7495 0,0.75762 -0.0595,0.0595 -0.19302,-0.0595 -0.25254,0 -0.0595,0.0595 0,0.16836 0,0.25254 0,0.33671 0,0.67343 0,1.01015 0,0.0842 0.0595,0.19301 0,0.25254 -0.0595,0.0595 -0.19302,-0.0595 -0.25254,0 -0.0595,0.0595 0,0.16836 0,0.25254 0,0.0842 0,0.16835 0,0.25253 0,1.17852 0,2.35703 0,3.53554 0,0.0842 0,0.16836 0,0.25254 0,0.0842 0.0595,0.19301 0,0.25253 -0.0595,0.0595 -0.19301,-0.0595 -0.25254,0 -0.0102,0.0102 0,0.91742 0,1.01016 0,0.84179 0,1.68358 0,2.52538 0,0.35513 0.055,0.93285 0,1.26269 -0.0706,0.42339 -0.18197,0.8393 -0.25254,1.26269 -0.0348,0.20913 0.0593,0.89161 0,1.01015 -0.0532,0.10648 -0.21489,0.1396 -0.25253,0.25254 -0.0482,0.1447 0,1.0256 0,1.26269 0,0.92597 0,1.85195 0,2.77792 0,0.2257 0.0402,1.18221 0,1.26269 -0.0532,0.10648 -0.2149,0.1396 -0.25254,0.25254 -0.0799,0.23958 0,0.50508 0,0.75761 0,0.58926 0,1.17851 0,1.76777 0,0.25254 0.0799,0.51804 0,0.75761 -0.0376,0.11294 -0.1993,0.14606 -0.25254,0.25254 -0.0402,0.0805 0,1.03699 0,1.26269 0,0.8418 0,1.68359 0,2.52538 0,1.93613 0,3.87226 0,5.80838 0,2.27285 0,4.54569 0,6.81854 0,0.8418 0,1.68359 0,2.52538 0,0.13206 -0.0332,0.94375 0,1.01016 0.0532,0.10648 0.1993,0.14605 0.25254,0.25253 0.0384,0.0769 0,0.64389 0,0.75762 0,0.58925 0,1.17851 0,1.76777 0,0.25253 0,0.50507 0,0.75761 0,0.0842 -0.0266,0.17268 0,0.25254 0.0595,0.17857 0.19301,0.3265 0.25254,0.50507 0.0678,0.20327 -0.0807,0.84878 0,1.01016 0.0532,0.10648 0.19929,0.14606 0.25253,0.25253 0.044,0.0881 0,1.32985 0,1.51523 0,0.0842 -0.0376,0.17725 0,0.25254 0.0532,0.10648 0.1993,0.14606 0.25254,0.25254 0.0753,0.15058 -0.0532,0.34536 0,0.50508 0.0595,0.17857 0.19302,0.3265 0.25254,0.50507 0.0549,0.16482 0,1.21329 0,1.51523 0,0.0842 0,0.16836 0,0.25254 0,0.0842 -0.0595,0.19301 0,0.25254 0.0595,0.0595 0.19301,-0.0595 0.25254,0 0.0595,0.0595 0,0.16836 0,0.25254 0,0.0842 0,0.16835 0,0.25253 0,1.17851 0,2.35703 0,3.53554 0,0.179 -0.0327,1.44993 0,1.51523 0.0532,0.10648 0.1993,0.14606 0.25254,0.25253 0.0384,0.0769 0,0.64389 0,0.75762 0,0.58925 0,1.17851 0,1.76777 0,1.43105 0,2.86209 0,4.29314 0,0.0927 -0.0102,0.99999 0,1.01016 0.0595,0.0595 0.19301,-0.0595 0.25253,0 0.0887,0.0886 -0.0872,1.08825 0,1.26269 0.0532,0.10648 0.1993,0.14606 0.25254,0.25254 0.0376,0.0753 0,0.16835 0,0.25253 0,0.16836 0,0.33672 0,0.50508 0,0.4209 0,0.84179 0,1.26269 0,1.68359 0,3.36718 0,5.05076 0,1.17851 0,2.35703 0,3.53554 0,0.0842 0,0.16836 0,0.25254 0,0.0842 0.0595,0.19301 0,0.25253 -0.0595,0.0595 -0.19301,-0.0595 -0.25254,0 -0.0595,0.0595 0,0.16836 0,0.25254 0,0.0842 0,0.16836 0,0.25254 0,0.50508 0,1.01015 0,1.51523 0,0.0842 0,0.16836 0,0.25254 0,0.0842 0.0376,0.17724 0,0.25253 -0.0532,0.10648 -0.19929,0.14606 -0.25253,0.25254 -0.0457,0.0913 0,1.08704 0,1.26269 0,0.11908 0.0114,1.25125 0,1.26269 -0.0595,0.0595 -0.19302,-0.0595 -0.25254,0 -0.0595,0.0595 0,0.16836 0,0.25254 0,0.17565 0.0457,1.17137 0,1.26269 -0.0532,0.10648 -0.1993,0.14606 -0.25254,0.25254 -0.0753,0.15059 0.11905,0.38603 0,0.50508 -0.0595,0.0595 -0.19301,-0.0595 -0.25254,0 -0.0516,0.0516 0.0501,0.65748 0,0.75761 -0.0532,0.10648 -0.1993,0.14606 -0.25254,0.25254 -0.0501,0.10013 0.0516,0.70599 0,0.75761 -0.0595,0.0595 -0.19301,-0.0595 -0.25253,0 -0.0841,0.0841 0.0841,0.42095 0,0.50508 -0.0595,0.0595 -0.19302,-0.0595 -0.25254,0 -0.0102,0.0102 0,0.91741 0,1.01015"
       id="path5469-6-1-4"
       inkscape:connector-curvature="0"
       sodipodi:nodetypes="cscsccssccssssccsccsccsccccsssccssssccssssccssccssccssccssssccssscccssccssccsssssccsssccccsccccssccsssccsssccccssssssccssssccsccsccscccccccc"
       clip-path="url(#clipPath5690)"
       inkscape:export-filename="C:\Users\Sam\Documents\Projects\Runner\unfinishedart\crate.png"
       inkscape:export-xdpi="18.931799"
       inkscape:export-ydpi="18.931799" />
    <path
       style="fill:none;stroke:#d4aa00;stroke-width:2;stroke-linecap:butt;stroke-linejoin:miter;stroke-miterlimit:4;stroke-opacity:1;stroke-dasharray:none;display:inline"
       d="m 153.79572,61.781343 c 0,0.505076 0,1.010152 0,1.515229 0,0.08418 -0.0595,0.193014 0,0.252538 0.0595,0.05952 0.19302,-0.05952 0.25254,0 0.0782,0.0782 -0.0782,1.184493 0,1.26269 0.0595,0.05952 0.19301,-0.05952 0.25254,0 0.0595,0.05952 0,0.168359 0,0.252539 0,0.420897 0,0.841793 0,1.26269 0,0.08418 -0.0595,0.193015 0,0.252538 0.0595,0.05952 0.19301,-0.05952 0.25254,0 0.0595,0.05952 0,0.168359 0,0.252539 0,0.08418 0,0.168358 0,0.252538 0,0.505076 0,1.010152 0,1.515229 0,0.08418 0,0.168358 0,0.252538 0,0.08418 -0.0376,0.177245 0,0.252538 0.0532,0.106479 0.19929,0.146059 0.25253,0.252538 0.0376,0.07529 0,0.168359 0,0.252538 0,0.179 -0.0326,1.449935 0,1.515229 0.0532,0.106479 0.1993,0.146059 0.25254,0.252538 0.0376,0.07529 0,0.168359 0,0.252538 0,0.179 -0.0327,1.449935 0,1.515229 0.0532,0.106479 0.1993,0.146059 0.25254,0.252538 0.0376,0.07529 0,0.168359 0,0.252538 0,0.08418 0,0.168359 0,0.252538 0,0.505077 0,1.010153 0,1.515229 0,0.08418 0,0.168359 0,0.252538 0,0.08418 -0.0595,0.193015 0,0.252539 0.0595,0.05952 0.19301,-0.05952 0.25254,0 0.0595,0.05952 0,0.168358 0,0.252538 0,0.420897 0,0.841793 0,1.26269 0,0.673435 0,1.34687 0,2.020305 0,0.08418 -0.0595,0.193015 0,0.252539 0.0595,0.05952 0.19301,-0.05952 0.25254,0 0.0595,0.05952 0,0.168358 0,0.252538 0,0.08418 0,0.168358 0,0.252538 0,1.178511 0,2.357022 0,3.535534 0,0.09274 -0.0102,0.99999 0,1.010152 0.0595,0.05952 0.19301,-0.05952 0.25253,0 0.0595,0.05952 0,0.168359 0,0.252538 0,0.168359 0,0.336718 0,0.505077 0,1.599408 0,3.198816 0,4.798224 0,1.34687 0,2.69374 0,4.04061 0,0.06125 -0.008,0.749493 0,0.757615 0.0595,0.05952 0.19302,-0.05952 0.25254,0 0.0102,0.01016 0,0.917411 0,1.010152 0,2.104485 0,4.208971 0,6.313451 0,2.60956 0,5.21912 0,7.82868 0,0.92598 0,1.85195 0,2.77792 0,0.2257 0.0402,1.18222 0,1.26269 -0.0532,0.10648 -0.1993,0.14606 -0.25254,0.25254 -0.0376,0.0753 0,0.16836 0,0.25254 0,0.16836 0,0.33672 0,0.50508 0,0.41107 0.0343,0.85138 0,1.26269 -0.0772,0.92658 -0.18629,1.85049 -0.25253,2.77792 -0.0353,0.49378 0,1.01664 0,1.51522 0,0.92598 0,1.85195 0,2.77792 0,0.0613 0.008,0.7495 0,0.75762 -0.0595,0.0595 -0.19302,-0.0595 -0.25254,0 -0.0595,0.0595 0,0.16836 0,0.25254 0,0.33671 0,0.67343 0,1.01015 0,0.0842 0.0595,0.19301 0,0.25254 -0.0595,0.0595 -0.19302,-0.0595 -0.25254,0 -0.0595,0.0595 0,0.16836 0,0.25254 0,0.0842 0,0.16835 0,0.25253 0,1.17852 0,2.35703 0,3.53554 0,0.0842 0,0.16836 0,0.25254 0,0.0842 0.0595,0.19301 0,0.25253 -0.0595,0.0595 -0.19301,-0.0595 -0.25254,0 -0.0102,0.0102 0,0.91742 0,1.01016 0,0.84179 0,1.68358 0,2.52538 0,0.35513 0.055,0.93285 0,1.26269 -0.0706,0.42339 -0.18197,0.8393 -0.25254,1.26269 -0.0348,0.20913 0.0593,0.89161 0,1.01015 -0.0532,0.10648 -0.21489,0.1396 -0.25253,0.25254 -0.0482,0.1447 0,1.0256 0,1.26269 0,0.92597 0,1.85195 0,2.77792 0,0.2257 0.0402,1.18221 0,1.26269 -0.0532,0.10648 -0.2149,0.1396 -0.25254,0.25254 -0.0799,0.23958 0,0.50508 0,0.75761 0,0.58926 0,1.17851 0,1.76777 0,0.25254 0.0799,0.51804 0,0.75761 -0.0376,0.11294 -0.1993,0.14606 -0.25254,0.25254 -0.0402,0.0805 0,1.03699 0,1.26269 0,0.8418 0,1.68359 0,2.52538 0,1.93613 1.6415,3.87226 1.6415,5.80838 0,2.27285 -1.6415,4.54569 -1.6415,6.81854 0,0.8418 0,1.68359 0,2.52538 0,0.13206 -0.0332,0.94375 0,1.01016 0.0532,0.10648 0.1993,0.14605 0.25254,0.25253 0.0384,0.0769 0,0.64389 0,0.75762 0,0.58925 -0.37881,1.17851 -0.37881,1.76777 0,0.25253 0,0.50507 0,0.75761 0,0.0842 -0.0266,0.17268 0,0.25254 0.0595,0.17857 0.19301,0.3265 0.25254,0.50507 0.0678,0.20327 -0.0807,0.84878 0,1.01016 0.0532,0.10648 0.19929,0.14606 0.25253,0.25253 0.044,0.0881 0,1.32985 0,1.51523 0,0.0842 -0.0376,0.17725 0,0.25254 0.0532,0.10648 0.1993,0.14606 0.25254,0.25254 0.0753,0.15058 -0.0532,0.34536 0,0.50508 0.0595,0.17857 0.19302,0.3265 0.25254,0.50507 0.0549,0.16482 0.37881,1.21329 0.37881,1.51523 0,0.0842 0,0.16836 0,0.25254 0,0.0842 -0.0595,0.19301 0,0.25254 0.0595,0.0595 0.19301,-0.0595 0.25254,0 0.0595,0.0595 0,0.16836 0,0.25254 0,0.0842 0,0.16835 0,0.25253 0,1.17851 -0.48477,2.35703 -0.48477,3.53554 0,0.179 -0.0327,1.44993 0,1.51523 0.0532,0.10648 0.1993,0.14606 0.25254,0.25253 0.0384,0.0769 0,0.64389 0,0.75762 0,0.58925 0,1.17851 0,1.76777 0,1.43105 0,2.86209 0,4.29314 0,0.0927 -0.0102,0.99999 0,1.01016 0.0595,0.0595 0.19301,-0.0595 0.25253,0 0.0887,0.0886 -0.0872,1.08825 0,1.26269 0.0532,0.10648 0.1993,0.14606 0.25254,0.25254 0.0376,0.0753 0,0.16835 0,0.25253 0,0.16836 0,0.33672 0,0.50508 0,0.4209 0,0.84179 0,1.26269 0,1.68359 0,3.36718 0,5.05076 0,1.17851 0.48477,2.35703 0.48477,3.53554 0,0.0842 0,0.16836 0,0.25254 0,0.0842 0.0595,0.19301 0,0.25253 -0.0595,0.0595 -0.19301,-0.0595 -0.25254,0 -0.0595,0.0595 0,0.16836 0,0.25254 0,0.0842 0,0.16836 0,0.25254 0,0.50508 0,1.01015 0,1.51523 0,0.0842 0,0.16836 0,0.25254 0,0.0842 0.0376,0.17724 0,0.25253 -0.0532,0.10648 -0.19929,0.14606 -0.25253,0.25254 -0.0457,0.0913 0,1.08704 0,1.26269 0,0.11908 0.0114,1.25125 0,1.26269 -0.0595,0.0595 -0.19302,-0.0595 -0.25254,0 -0.0595,0.0595 0,0.16836 0,0.25254 0,0.17565 0.0457,1.17137 0,1.26269 -0.0532,0.10648 -0.1993,0.14606 -0.25254,0.25254 -0.0753,0.15059 0.11905,0.38603 0,0.50508 -0.0595,0.0595 -0.19301,-0.0595 -0.25254,0 -0.0516,0.0516 0.0501,0.65748 0,0.75761 -0.0532,0.10648 -0.1993,0.14606 -0.25254,0.25254 -0.0501,0.10013 0.0516,0.70599 0,0.75761 -0.0595,0.0595 -0.19301,-0.0595 -0.25253,0 -0.0841,0.0841 0.0841,0.42095 0,0.50508 -0.0595,0.0595 -0.19302,-0.0595 -0.25254,0 -0.0102,0.0102 0,0.91741 0,1.01015"
       id="path5469-6-1-2"
       inkscape:connector-curvature="0"
       sodipodi:nodetypes="cscsccssccssssccsccsccssssccsssccsssccssssccssssccssccssccssccssssccssscccssccssccsssssccsssccccsccccssccsssccsssccccssssssccssssccsccsccscccccccc"
       clip-path="url(#clipPath5686)"
       inkscape:export-filename="C:\Users\Sam\Documents\Projects\Runner\unfinishedart\crate.png"
       inkscape:export-xdpi="18.931799"
       inkscape:export-ydpi="18.931799" />
    <path
       style="fill:none;stroke:#d4aa00;stroke-width:1px;stroke-linecap:butt;stroke-linejoin:miter;stroke-opacity:1;display:inline"
       d="m 165.41248,62.286414 c 0,0.505076 0,1.010152 0,1.515229 0,0.08418 -0.0595,0.193014 0,0.252538 0.0595,0.05952 0.19302,-0.05952 0.25254,0 0.0782,0.0782 -0.0782,1.184493 0,1.26269 0.0595,0.05952 0.19301,-0.05952 0.25254,0 0.0595,0.05952 0,0.168359 0,0.252539 0,0.420897 0,0.841793 0,1.26269 0,0.08418 -0.0595,0.193015 0,0.252538 0.0595,0.05952 0.19301,-0.05952 0.25254,0 0.0595,0.05952 0,0.168359 0,0.252539 0,0.08418 0,0.168358 0,0.252538 0,0.505076 0,1.010152 0,1.515229 0,0.08418 0,0.168358 0,0.252538 0,0.08418 -0.0376,0.177245 0,0.252538 0.0532,0.106479 0.19929,0.146059 0.25253,0.252538 0.0376,0.07529 0,0.168359 0,0.252538 0,0.179 -0.0326,1.449935 0,1.515229 0.0532,0.106479 0.1993,0.146059 0.25254,0.252538 0.0376,0.07529 0,0.168359 0,0.252538 0,0.179 -0.0327,1.449935 0,1.515229 0.0532,0.106479 0.1993,0.146059 0.25254,0.252538 0.0376,0.07529 0,0.168359 0,0.252538 0,0.08418 0,0.168359 0,0.252538 0,0.505077 0,1.010153 0,1.515229 0,0.08418 0,0.168359 0,0.252538 0,0.08418 -0.0595,0.193015 0,0.252539 0.0595,0.05952 0.19301,-0.05952 0.25254,0 0.0595,0.05952 0,0.168358 0,0.252538 0,0.420897 0,0.841793 0,1.26269 0,0.673435 0,1.34687 0,2.020305 0,0.08418 -0.0595,0.193015 0,0.252539 0.0595,0.05952 0.19301,-0.05952 0.25254,0 0.0595,0.05952 0,0.168358 0,0.252538 0,0.08418 0,0.168358 0,0.252538 0,1.178511 0,2.357022 0,3.535534 0,0.09274 -0.0102,0.99999 0,1.010152 0.0595,0.05952 0.19301,-0.05952 0.25253,0 0.0595,0.05952 0,0.168359 0,0.252538 0,0.168359 0,0.336718 0,0.505077 0,1.599408 0,3.198816 0,4.798224 0,1.34687 0,2.69374 0,4.04061 0,0.06125 -0.008,0.749493 0,0.757615 0.0595,0.05952 0.19302,-0.05952 0.25254,0 0.0102,0.01016 0,0.917411 0,1.010152 0,2.104485 0,4.20897 0,6.31346 0,2.60956 0,5.21912 0,7.82868 0,0.92598 0,1.85195 0,2.77792 0,0.2257 0.0402,1.18222 0,1.26269 -0.0532,0.10648 -0.1993,0.14606 -0.25254,0.25254 -0.0376,0.0753 0,0.16836 0,0.25254 0,0.16836 0,0.33672 0,0.50508 0,0.41107 0.0343,0.85138 0,1.26269 -0.0772,0.92658 -0.18629,1.85049 -0.25253,2.77792 -0.0353,0.49378 0,1.01664 0,1.51522 0,0.92598 0,1.85195 0,2.77792 0,0.0613 0.008,0.7495 0,0.75762 -0.0595,0.0595 -0.19302,-0.0595 -0.25254,0 -0.0595,0.0595 0,0.16836 0,0.25254 0,0.33671 0,0.67343 0,1.01015 0,0.0842 0.0595,0.19301 0,0.25254 -0.0595,0.0595 -0.19302,-0.0595 -0.25254,0 -0.0595,0.0595 0,0.16836 0,0.25254 0,0.0842 0,0.16835 0,0.25253 0,1.17852 0,2.35703 0,3.53554 0,0.0842 0,0.16836 0,0.25254 0,0.0842 0.0595,0.19301 0,0.25253 -0.0595,0.0595 -0.19301,-0.0595 -0.25254,0 -0.0102,0.0102 0,0.91742 0,1.01016 0,0.84179 0,1.68358 0,2.52538 0,0.35513 0.055,0.93285 0,1.26269 -0.0706,0.42339 -0.18197,0.8393 -0.25254,1.26269 -0.0348,0.20913 0.0593,0.89161 0,1.01015 -0.0532,0.10648 -0.21489,0.1396 -0.25253,0.25254 -0.0482,0.1447 0,1.0256 0,1.26269 0,0.92597 0,1.85195 0,2.77792 0,0.2257 0.0402,1.18221 0,1.26269 -0.0532,0.10648 -0.2149,0.1396 -0.25254,0.25254 -0.0799,0.23958 0,0.50508 0,0.75761 0,0.58926 0,1.17851 0,1.76777 0,0.25254 0.0799,0.51804 0,0.75761 -0.0376,0.11294 -0.1993,0.14606 -0.25254,0.25254 -0.0402,0.0805 0,1.03699 0,1.26269 0,0.8418 0,1.68359 0,2.52538 0,1.93613 0,3.87226 0,5.80838 0,2.27285 0,4.54569 0,6.81854 0,0.8418 0,1.68359 0,2.52538 0,0.13206 -0.0332,0.94375 0,1.01016 0.0532,0.10648 0.1993,0.14605 0.25254,0.25253 0.0384,0.0769 0,0.64389 0,0.75762 0,0.58925 0,1.17851 0,1.76777 0,0.25253 0,0.50507 0,0.75761 0,0.0842 -0.0266,0.17268 0,0.25254 0.0595,0.17857 0.19301,0.3265 0.25254,0.50507 0.0678,0.20327 -0.0807,0.84878 0,1.01016 0.0532,0.10648 0.19929,0.14606 0.25253,0.25253 0.044,0.0881 0,1.32985 0,1.51523 0,0.0842 -0.0376,0.17725 0,0.25254 0.0532,0.10648 0.1993,0.14606 0.25254,0.25254 0.0753,0.15058 -0.0532,0.34536 0,0.50508 0.0595,0.17857 0.19302,0.3265 0.25254,0.50507 0.0549,0.16482 0,1.21329 0,1.51523 0,0.0842 0,0.16836 0,0.25254 0,0.0842 -0.0595,0.19301 0,0.25254 0.0595,0.0595 0.19301,-0.0595 0.25254,0 0.0595,0.0595 0,0.16836 0,0.25254 0,0.0842 0,0.16835 0,0.25253 0,1.17851 0,2.35703 0,3.53554 0,0.179 -0.0327,1.44993 0,1.51523 0.0532,0.10648 0.1993,0.14606 0.25254,0.25253 0.0384,0.0769 0,0.64389 0,0.75762 0,0.58925 0,1.17851 0,1.76777 0,1.43105 0,2.86209 0,4.29314 0,0.0927 -0.0102,0.99999 0,1.01016 0.0595,0.0595 0.19301,-0.0595 0.25253,0 0.0887,0.0886 -0.0872,1.08825 0,1.26269 0.0532,0.10648 0.1993,0.14606 0.25254,0.25254 0.0376,0.0753 0,0.16835 0,0.25253 0,0.16836 0,0.33672 0,0.50508 0,0.4209 0,0.84179 0,1.26269 0,1.68359 0,3.36718 0,5.05076 0,1.17851 0,2.35703 0,3.53554 0,0.0842 0,0.16836 0,0.25254 0,0.0842 0.0595,0.19301 0,0.25253 -0.0595,0.0595 -0.19301,-0.0595 -0.25254,0 -0.0595,0.0595 0,0.16836 0,0.25254 0,0.0842 0,0.16836 0,0.25254 0,0.50508 0,1.01015 0,1.51523 0,0.0842 0,0.16836 0,0.25254 0,0.0842 0.0376,0.17724 0,0.25253 -0.0532,0.10648 -0.19929,0.14606 -0.25253,0.25254 -0.0457,0.0913 0,1.08704 0,1.26269 0,0.11908 0.0114,1.25125 0,1.26269 -0.0595,0.0595 -0.19302,-0.0595 -0.25254,0 -0.0595,0.0595 0,0.16836 0,0.25254 0,0.17565 0.0457,1.17137 0,1.26269 -0.0532,0.10648 -0.1993,0.14606 -0.25254,0.25254 -0.0753,0.15059 0.11905,0.38603 0,0.50508 -0.0595,0.0595 -0.19301,-0.0595 -0.25254,0 -0.0516,0.0516 0.0501,0.65748 0,0.75761 -0.0532,0.10648 -0.1993,0.14606 -0.25254,0.25254 -0.0501,0.10013 0.0516,0.70599 0,0.75761 -0.0595,0.0595 -0.19301,-0.0595 -0.25253,0 -0.0841,0.0841 0.0841,0.42095 0,0.50508 -0.0595,0.0595 -0.19302,-0.0595 -0.25254,0 -0.0102,0.0102 0,0.91741 0,1.01015"
       id="path5469-6-1-2-3"
       inkscape:connector-curvature="0"
       clip-path="url(#clipPath5682)"
       inkscape:export-filename="C:\Users\Sam\Documents\Projects\Runner\unfinishedart\crate.png"
       inkscape:export-xdpi="18.931799"
       inkscape:export-ydpi="18.931799" />
    <path
       style="fill:none;stroke:#d4aa00;stroke-width:2;stroke-linecap:butt;stroke-linejoin:miter;stroke-miterlimit:4;stroke-opacity:1;stroke-dasharray:none;display:inline"
       d="m 177.02924,62.033871 c 0,0.505076 0,1.010152 0,1.515229 0,0.08418 -0.0595,0.193014 0,0.252538 0.0595,0.05952 0.19302,-0.05952 0.25254,0 0.0782,0.0782 -0.0782,1.184493 0,1.26269 0.0595,0.05952 0.19301,-0.05952 0.25254,0 0.0595,0.05952 0,0.168359 0,0.252539 0,0.420897 0,0.841793 0,1.26269 0,0.08418 -0.0595,0.193015 0,0.252538 0.0595,0.05952 0.19301,-0.05952 0.25254,0 0.0595,0.05952 0,0.168359 0,0.252539 0,0.08418 0,0.168358 0,0.252538 0,0.505076 0,1.010152 0,1.515229 0,0.08418 0,0.168358 0,0.252538 0,0.08418 -0.0376,0.177245 0,0.252538 0.0532,0.106479 0.19929,0.146059 0.25253,0.252538 0.0376,0.07529 0,0.168359 0,0.252538 0,0.179 -0.0326,1.449935 0,1.515229 0.0532,0.106479 0.1993,0.146059 0.25254,0.252538 0.0376,0.07529 0,0.168359 0,0.252538 0,0.179 -0.0327,1.449935 0,1.515229 0.0532,0.106479 0.1993,0.146059 0.25254,0.252538 0.0376,0.07529 0,0.168359 0,0.252538 0,0.08418 0,0.168359 0,0.252538 0,0.505077 0,1.010153 0,1.515229 0,0.08418 0,0.168359 0,0.252538 0,0.08418 -0.0595,0.193015 0,0.252539 0.0595,0.05952 0.19301,-0.05952 0.25254,0 0.0595,0.05952 0,0.168358 0,0.252538 0,0.420897 0,0.841793 0,1.26269 0,0.673435 0,1.34687 0,2.020305 0,0.08418 -0.0595,0.193015 0,0.252539 0.0595,0.05952 0.19301,-0.05952 0.25254,0 0.0595,0.05952 0,0.168358 0,0.252538 0,0.08418 0,0.168358 0,0.252538 0,1.178511 0,2.357022 0,3.535534 0,0.09274 -0.0102,0.99999 0,1.010152 0.0595,0.05952 0.19301,-0.05952 0.25253,0 0.0595,0.05952 0,0.168359 0,0.252538 0,0.168359 0,0.336718 0,0.505077 0,1.599408 0,3.198816 0,4.798224 0,1.34687 0,2.69374 0,4.04061 0,0.06125 -0.008,0.749493 0,0.757615 0.0595,0.05952 0.19302,-0.05952 0.25254,0 0.0102,0.01016 0,0.917411 0,1.010152 0,2.104485 0,4.208973 0,6.313463 0,2.60956 0,5.21912 0,7.82868 0,0.92598 0,1.85195 0,2.77792 0,0.2257 0.0402,1.18222 0,1.26269 -0.0532,0.10648 -0.1993,0.14606 -0.25254,0.25254 -0.0376,0.0753 0,0.16836 0,0.25254 0,0.16836 0,0.33672 0,0.50508 0,0.41107 0.0343,0.85138 0,1.26269 -0.0772,0.92658 -0.18629,1.85049 -0.25253,2.77792 -0.0353,0.49378 0,1.01664 0,1.51522 0,0.92598 0,1.85195 0,2.77792 0,0.0613 0.008,0.7495 0,0.75762 -0.0595,0.0595 -0.19302,-0.0595 -0.25254,0 -0.0595,0.0595 0,0.16836 0,0.25254 0,0.33671 0,0.67343 0,1.01015 0,0.0842 0.0595,0.19301 0,0.25254 -0.0595,0.0595 -0.19302,-0.0595 -0.25254,0 -0.0595,0.0595 0,0.16836 0,0.25254 0,0.0842 0,0.16835 0,0.25253 0,1.17852 0,2.35703 0,3.53554 0,0.0842 0,0.16836 0,0.25254 0,0.0842 0.0595,0.19301 0,0.25253 -0.0595,0.0595 -0.19301,-0.0595 -0.25254,0 -0.0102,0.0102 0,0.91742 0,1.01016 0,0.84179 0,1.68358 0,2.52538 0,0.35513 0.055,0.93285 0,1.26269 -0.0706,0.42339 -0.18197,0.8393 -0.25254,1.26269 -0.0348,0.20913 0.0593,0.89161 0,1.01015 -0.0532,0.10648 -0.21489,0.1396 -0.25253,0.25254 -0.0482,0.1447 0,1.0256 0,1.26269 0,0.92597 0,1.85195 0,2.77792 0,0.2257 0.0402,1.18221 0,1.26269 -0.0532,0.10648 -0.2149,0.1396 -0.25254,0.25254 -0.0799,0.23958 0,0.50508 0,0.75761 0,0.58926 0,1.17851 0,1.76777 0,0.25254 0.0799,0.51804 0,0.75761 -0.0376,0.11294 -0.1993,0.14606 -0.25254,0.25254 -0.0402,0.0805 0,1.03699 0,1.26269 0,0.8418 0,1.68359 0,2.52538 0,1.93613 0,3.87226 0,5.80838 0,2.27285 0,4.54569 0,6.81854 0,0.8418 0,1.68359 0,2.52538 0,0.13206 -0.0332,0.94375 0,1.01016 0.0532,0.10648 0.1993,0.14605 0.25254,0.25253 0.0384,0.0769 0,0.64389 0,0.75762 0,0.58925 0,1.17851 0,1.76777 0,0.25253 0,0.50507 0,0.75761 0,0.0842 -0.0266,0.17268 0,0.25254 0.0595,0.17857 0.19301,0.3265 0.25254,0.50507 0.0678,0.20327 -0.0807,0.84878 0,1.01016 0.0532,0.10648 0.19929,0.14606 0.25253,0.25253 0.044,0.0881 0,1.32985 0,1.51523 0,0.0842 -0.0376,0.17725 0,0.25254 0.0532,0.10648 0.1993,0.14606 0.25254,0.25254 0.0753,0.15058 -0.0532,0.34536 0,0.50508 0.0595,0.17857 0.19302,0.3265 0.25254,0.50507 0.0549,0.16482 0,1.21329 0,1.51523 0,0.0842 0,0.16836 0,0.25254 0,0.0842 -0.0595,0.19301 0,0.25254 0.0595,0.0595 0.19301,-0.0595 0.25254,0 0.0595,0.0595 0,0.16836 0,0.25254 0,0.0842 0,0.16835 0,0.25253 0,1.17851 0,2.35703 0,3.53554 0,0.179 -0.0327,1.44993 0,1.51523 0.0532,0.10648 0.1993,0.14606 0.25254,0.25253 0.0384,0.0769 0,0.64389 0,0.75762 0,0.58925 0,1.17851 0,1.76777 0,1.43105 0,2.86209 0,4.29314 0,0.0927 -0.0102,0.99999 0,1.01016 0.0595,0.0595 0.19301,-0.0595 0.25253,0 0.0887,0.0886 -0.0872,1.08825 0,1.26269 0.0532,0.10648 0.1993,0.14606 0.25254,0.25254 0.0376,0.0753 0,0.16835 0,0.25253 0,0.16836 0,0.33672 0,0.50508 0,0.4209 0,0.84179 0,1.26269 0,1.68359 0,3.36718 0,5.05076 0,1.17851 0,2.35703 0,3.53554 0,0.0842 0,0.16836 0,0.25254 0,0.0842 0.0595,0.19301 0,0.25253 -0.0595,0.0595 -0.19301,-0.0595 -0.25254,0 -0.0595,0.0595 0,0.16836 0,0.25254 0,0.0842 0,0.16836 0,0.25254 0,0.50508 0,1.01015 0,1.51523 0,0.0842 0,0.16836 0,0.25254 0,0.0842 0.0376,0.17724 0,0.25253 -0.0532,0.10648 -0.19929,0.14606 -0.25253,0.25254 -0.0457,0.0913 0,1.08704 0,1.26269 0,0.11908 0.0114,1.25125 0,1.26269 -0.0595,0.0595 -0.19302,-0.0595 -0.25254,0 -0.0595,0.0595 0,0.16836 0,0.25254 0,0.17565 0.0457,1.17137 0,1.26269 -0.0532,0.10648 -0.1993,0.14606 -0.25254,0.25254 -0.0753,0.15059 0.11905,0.38603 0,0.50508 -0.0595,0.0595 -0.19301,-0.0595 -0.25254,0 -0.0516,0.0516 0.0501,0.65748 0,0.75761 -0.0532,0.10648 -0.1993,0.14606 -0.25254,0.25254 -0.0501,0.10013 0.0516,0.70599 0,0.75761 -0.0595,0.0595 -0.19301,-0.0595 -0.25253,0 -0.0841,0.0841 0.0841,0.42095 0,0.50508 -0.0595,0.0595 -0.19302,-0.0595 -0.25254,0 -0.0102,0.0102 0,0.91741 0,1.01015"
       id="path5469-6-1-2-3-2"
       inkscape:connector-curvature="0"
       clip-path="url(#clipPath5678)"
       inkscape:export-filename="C:\Users\Sam\Documents\Projects\Runner\unfinishedart\crate.png"
       inkscape:export-xdpi="18.931799"
       inkscape:export-ydpi="18.931799" />
    <path
       style="fill:none;stroke:#d4aa00;stroke-width:1px;stroke-linecap:butt;stroke-linejoin:miter;stroke-opacity:1;display:inline"
       d="m 191.92898,62.033871 c 0,0.505076 0,1.010152 0,1.515229 0,0.08418 -0.0595,0.193014 0,0.252538 0.0595,0.05952 0.19302,-0.05952 0.25254,0 0.0782,0.0782 -0.0782,1.184493 0,1.26269 0.0595,0.05952 0.19301,-0.05952 0.25254,0 0.0595,0.05952 0,0.168359 0,0.252539 0,0.420897 0,0.841793 0,1.26269 0,0.08418 -0.0595,0.193015 0,0.252538 0.0595,0.05952 0.19301,-0.05952 0.25254,0 0.0595,0.05952 0,0.168359 0,0.252539 0,0.08418 0,0.168358 0,0.252538 0,0.505076 0,1.010152 0,1.515229 0,0.08418 0,0.168358 0,0.252538 0,0.08418 -0.0376,0.177245 0,0.252538 0.0532,0.106479 0.19929,0.146059 0.25253,0.252538 0.0376,0.07529 0,0.168359 0,0.252538 0,0.179 -0.0326,1.449935 0,1.515229 0.0532,0.106479 0.1993,0.146059 0.25254,0.252538 0.0376,0.07529 0,0.168359 0,0.252538 0,0.179 -0.0327,1.449935 0,1.515229 0.0532,0.106479 0.1993,0.146059 0.25254,0.252538 0.0376,0.07529 0,0.168359 0,0.252538 0,0.08418 0,0.168359 0,0.252538 0,0.505077 0,1.010153 0,1.515229 0,0.08418 0,0.168359 0,0.252538 0,0.08418 -0.0595,0.193015 0,0.252539 0.0595,0.05952 0.19301,-0.05952 0.25254,0 0.0595,0.05952 0,0.168358 0,0.252538 0,0.420897 0,0.841793 0,1.26269 0,0.673435 0,1.34687 0,2.020305 0,0.08418 -0.0595,0.193015 0,0.252539 0.0595,0.05952 0.19301,-0.05952 0.25254,0 0.0595,0.05952 0,0.168358 0,0.252538 0,0.08418 0,0.168358 0,0.252538 0,1.178511 0,2.357022 0,3.535534 0,0.09274 -0.0102,0.99999 0,1.010152 0.0595,0.05952 0.19301,-0.05952 0.25253,0 0.0595,0.05952 0,0.168359 0,0.252538 0,0.168359 0,0.336718 0,0.505077 0,1.599408 0,3.198816 0,4.798224 0,1.34687 0,2.69374 0,4.04061 0,0.06125 -0.008,0.749493 0,0.757615 0.0595,0.05952 0.19302,-0.05952 0.25254,0 0.0102,0.01016 0,0.917411 0,1.010152 0,2.104485 0,4.208973 0,6.313463 0,2.60956 0,5.21912 0,7.82868 0,0.92598 0,1.85195 0,2.77792 0,0.2257 0.0402,1.18222 0,1.26269 -0.0532,0.10648 -0.1993,0.14606 -0.25254,0.25254 -0.0376,0.0753 0,0.16836 0,0.25254 0,0.16836 0,0.33672 0,0.50508 0,0.41107 0.0343,0.85138 0,1.26269 -0.0772,0.92658 -0.18629,1.85049 -0.25253,2.77792 -0.0353,0.49378 0,1.01664 0,1.51522 0,0.92598 0,1.85195 0,2.77792 0,0.0613 0.008,0.7495 0,0.75762 -0.0595,0.0595 -0.19302,-0.0595 -0.25254,0 -0.0595,0.0595 0,0.16836 0,0.25254 0,0.33671 0,0.67343 0,1.01015 0,0.0842 0.0595,0.19301 0,0.25254 -0.0595,0.0595 -0.19302,-0.0595 -0.25254,0 -0.0595,0.0595 0,0.16836 0,0.25254 0,0.0842 0,0.16835 0,0.25253 0,1.17852 0,2.35703 0,3.53554 0,0.0842 0,0.16836 0,0.25254 0,0.0842 0.0595,0.19301 0,0.25253 -0.0595,0.0595 -0.19301,-0.0595 -0.25254,0 -0.0102,0.0102 0,0.91742 0,1.01016 0,0.84179 0,1.68358 0,2.52538 0,0.35513 0.055,0.93285 0,1.26269 -0.0706,0.42339 -0.18197,0.8393 -0.25254,1.26269 -0.0348,0.20913 0.0593,0.89161 0,1.01015 -0.0532,0.10648 -0.21489,0.1396 -0.25253,0.25254 -0.0482,0.1447 0,1.0256 0,1.26269 0,0.92597 0,1.85195 0,2.77792 0,0.2257 0.0402,1.18221 0,1.26269 -0.0532,0.10648 -0.2149,0.1396 -0.25254,0.25254 -0.0799,0.23958 0,0.50508 0,0.75761 0,0.58926 0,1.17851 0,1.76777 0,0.25254 0.0799,0.51804 0,0.75761 -0.0376,0.11294 -0.1993,0.14606 -0.25254,0.25254 -0.0402,0.0805 0,1.03699 0,1.26269 0,0.8418 0,1.68359 0,2.52538 0,1.93613 0,3.87226 0,5.80838 0,2.27285 0,4.54569 0,6.81854 0,0.8418 0,1.68359 0,2.52538 0,0.13206 -0.0332,0.94375 0,1.01016 0.0532,0.10648 0.1993,0.14605 0.25254,0.25253 0.0384,0.0769 0,0.64389 0,0.75762 0,0.58925 0,1.17851 0,1.76777 0,0.25253 0,0.50507 0,0.75761 0,0.0842 -0.0266,0.17268 0,0.25254 0.0595,0.17857 0.19301,0.3265 0.25254,0.50507 0.0678,0.20327 -0.0807,0.84878 0,1.01016 0.0532,0.10648 0.19929,0.14606 0.25253,0.25253 0.044,0.0881 0,1.32985 0,1.51523 0,0.0842 -0.0376,0.17725 0,0.25254 0.0532,0.10648 0.1993,0.14606 0.25254,0.25254 0.0753,0.15058 -0.0532,0.34536 0,0.50508 0.0595,0.17857 0.19302,0.3265 0.25254,0.50507 0.0549,0.16482 0,1.21329 0,1.51523 0,0.0842 0,0.16836 0,0.25254 0,0.0842 -0.0595,0.19301 0,0.25254 0.0595,0.0595 0.19301,-0.0595 0.25254,0 0.0595,0.0595 0,0.16836 0,0.25254 0,0.0842 0,0.16835 0,0.25253 0,1.17851 0,2.35703 0,3.53554 0,0.179 -0.0327,1.44993 0,1.51523 0.0532,0.10648 0.1993,0.14606 0.25254,0.25253 0.0384,0.0769 0,0.64389 0,0.75762 0,0.58925 0,1.17851 0,1.76777 0,1.43105 0,2.86209 0,4.29314 0,0.0927 -0.0102,0.99999 0,1.01016 0.0595,0.0595 0.19301,-0.0595 0.25253,0 0.0887,0.0886 -0.0872,1.08825 0,1.26269 0.0532,0.10648 0.1993,0.14606 0.25254,0.25254 0.0376,0.0753 0,0.16835 0,0.25253 0,0.16836 0,0.33672 0,0.50508 0,0.4209 0,0.84179 0,1.26269 0,1.68359 0,3.36718 0,5.05076 0,1.17851 0,2.35703 0,3.53554 0,0.0842 0,0.16836 0,0.25254 0,0.0842 0.0595,0.19301 0,0.25253 -0.0595,0.0595 -0.19301,-0.0595 -0.25254,0 -0.0595,0.0595 0,0.16836 0,0.25254 0,0.0842 0,0.16836 0,0.25254 0,0.50508 0,1.01015 0,1.51523 0,0.0842 0,0.16836 0,0.25254 0,0.0842 0.0376,0.17724 0,0.25253 -0.0532,0.10648 -0.19929,0.14606 -0.25253,0.25254 -0.0457,0.0913 0,1.08704 0,1.26269 0,0.11908 0.0114,1.25125 0,1.26269 -0.0595,0.0595 -0.19302,-0.0595 -0.25254,0 -0.0595,0.0595 0,0.16836 0,0.25254 0,0.17565 0.0457,1.17137 0,1.26269 -0.0532,0.10648 -0.1993,0.14606 -0.25254,0.25254 -0.0753,0.15059 0.11905,0.38603 0,0.50508 -0.0595,0.0595 -0.19301,-0.0595 -0.25254,0 -0.0516,0.0516 0.0501,0.65748 0,0.75761 -0.0532,0.10648 -0.1993,0.14606 -0.25254,0.25254 -0.0501,0.10013 0.0516,0.70599 0,0.75761 -0.0595,0.0595 -0.19301,-0.0595 -0.25253,0 -0.0841,0.0841 0.0841,0.42095 0,0.50508 -0.0595,0.0595 -0.19302,-0.0595 -0.25254,0 -0.0102,0.0102 0,0.91741 0,1.01015"
       id="path5469-6-1-2-3-21"
       inkscape:connector-curvature="0"
       clip-path="url(#clipPath5674)"
       inkscape:export-filename="C:\Users\Sam\Documents\Projects\Runner\unfinishedart\crate.png"
       inkscape:export-xdpi="18.931799"
       inkscape:export-ydpi="18.931799" />
    <path
       style="fill:none;stroke:#d4aa00;stroke-width:1px;stroke-linecap:butt;stroke-linejoin:miter;stroke-opacity:1;display:inline"
       d="m 197.48483,62.033872 c 0,0.505076 0,1.010152 0,1.515229 0,0.08418 -0.0595,0.193014 0,0.252538 0.0595,0.05952 0.19302,-0.05952 0.25254,0 0.0782,0.0782 -0.0782,1.184493 0,1.26269 0.0595,0.05952 0.19301,-0.05952 0.25254,0 0.0595,0.05952 0,0.168359 0,0.252539 0,0.420897 0,0.841793 0,1.26269 0,0.08418 -0.0595,0.193015 0,0.252538 0.0595,0.05952 0.19301,-0.05952 0.25254,0 0.0595,0.05952 0,0.168359 0,0.252539 0,0.08418 0,0.168358 0,0.252538 0,0.505076 0,1.010152 0,1.515229 0,0.08418 0,0.168358 0,0.252538 0,0.08418 -0.0376,0.177245 0,0.252538 0.0532,0.106479 0.19929,0.146059 0.25253,0.252538 0.0376,0.07529 0,0.168359 0,0.252538 0,0.179 -0.0326,1.449935 0,1.515229 0.0532,0.106479 0.1993,0.146059 0.25254,0.252538 0.0376,0.07529 0,0.168359 0,0.252538 0,0.179 -0.0327,1.449935 0,1.515229 0.0532,0.106479 0.1993,0.146059 0.25254,0.252538 0.0376,0.07529 0,0.168359 0,0.252538 0,0.08418 0,0.168359 0,0.252538 0,0.505077 0,1.010153 0,1.515229 0,0.08418 0,0.168359 0,0.252538 0,0.08418 -0.0595,0.193015 0,0.252539 0.0595,0.05952 0.19301,-0.05952 0.25254,0 0.0595,0.05952 0,0.168358 0,0.252538 0,0.420897 0,0.841793 0,1.26269 0,0.673435 0,1.34687 0,2.020305 0,0.08418 -0.0595,0.193015 0,0.252539 0.0595,0.05952 0.19301,-0.05952 0.25254,0 0.0595,0.05952 0,0.168358 0,0.252538 0,0.08418 0,0.168358 0,0.252538 0,1.178511 0,2.357022 0,3.535534 0,0.09274 -0.0102,0.99999 0,1.010152 0.0595,0.05952 0.19301,-0.05952 0.25253,0 0.0595,0.05952 0,0.168359 0,0.252538 0,0.168359 0,0.336718 0,0.505077 0,1.599408 0,3.198816 0,4.798224 0,1.34687 0,2.69374 0,4.04061 0,0.06125 -0.008,0.749493 0,0.757615 0.0595,0.05952 0.19302,-0.05952 0.25254,0 0.0102,0.01016 0,0.917411 0,1.010152 0,2.104485 0,4.208972 0,6.313462 0,2.60956 0,5.21912 0,7.82868 0,0.92598 0,1.85195 0,2.77792 0,0.2257 0.0402,1.18222 0,1.26269 -0.0532,0.10648 -0.1993,0.14606 -0.25254,0.25254 -0.0376,0.0753 0,0.16836 0,0.25254 0,0.16836 0,0.33672 0,0.50508 0,0.41107 0.0343,0.85138 0,1.26269 -0.0772,0.92658 -0.18629,1.85049 -0.25253,2.77792 -0.0353,0.49378 0,1.01664 0,1.51522 0,0.92598 0,1.85195 0,2.77792 0,0.0613 0.008,0.7495 0,0.75762 -0.0595,0.0595 -0.19302,-0.0595 -0.25254,0 -0.0595,0.0595 0,0.16836 0,0.25254 0,0.33671 0,0.67343 0,1.01015 0,0.0842 0.0595,0.19301 0,0.25254 -0.0595,0.0595 -0.19302,-0.0595 -0.25254,0 -0.0595,0.0595 0,0.16836 0,0.25254 0,0.0842 0,0.16835 0,0.25253 0,1.17852 0,2.35703 0,3.53554 0,0.0842 0,0.16836 0,0.25254 0,0.0842 0.0595,0.19301 0,0.25253 -0.0595,0.0595 -0.19301,-0.0595 -0.25254,0 -0.0102,0.0102 0,0.91742 0,1.01016 0,0.84179 0,1.68358 0,2.52538 0,0.35513 0.055,0.93285 0,1.26269 -0.0706,0.42339 -0.18197,0.8393 -0.25254,1.26269 -0.0348,0.20913 0.0593,0.89161 0,1.01015 -0.0532,0.10648 -0.21489,0.1396 -0.25253,0.25254 -0.0482,0.1447 0,1.0256 0,1.26269 0,0.92597 0,1.85195 0,2.77792 0,0.2257 0.0402,1.18221 0,1.26269 -0.0532,0.10648 -0.2149,0.1396 -0.25254,0.25254 -0.0799,0.23958 0,0.50508 0,0.75761 0,0.58926 0,1.17851 0,1.76777 0,0.25254 0.0799,0.51804 0,0.75761 -0.0376,0.11294 -0.1993,0.14606 -0.25254,0.25254 -0.0402,0.0805 0,1.03699 0,1.26269 0,0.8418 0,1.68359 0,2.52538 0,1.93613 0,3.87226 0,5.80838 0,2.27285 0,4.54569 0,6.81855 0,0.8418 0,1.68359 0,2.52538 0,0.13206 -0.0332,0.94375 0,1.01016 0.0532,0.10648 0.1993,0.14605 0.25254,0.25253 0.0384,0.0769 0,0.64389 0,0.75762 0,0.58925 0,1.17851 0,1.76777 0,0.25253 0,0.50507 0,0.75761 0,0.0842 -0.0266,0.17268 0,0.25254 0.0595,0.17857 0.19301,0.3265 0.25254,0.50507 0.0678,0.20327 -0.0807,0.84878 0,1.01016 0.0532,0.10648 0.19929,0.14606 0.25253,0.25253 0.044,0.0881 0,1.32985 0,1.51523 0,0.0842 -0.0376,0.17725 0,0.25254 0.0532,0.10648 0.1993,0.14606 0.25254,0.25254 0.0753,0.15058 -0.0532,0.34536 0,0.50508 0.0595,0.17857 0.19302,0.3265 0.25254,0.50507 0.0549,0.16482 0,1.21329 0,1.51523 0,0.0842 0,0.16836 0,0.25254 0,0.0842 -0.0595,0.19301 0,0.25254 0.0595,0.0595 0.19301,-0.0595 0.25254,0 0.0595,0.0595 0,0.16836 0,0.25254 0,0.0842 0,0.16835 0,0.25253 0,1.17851 0,2.35703 0,3.53554 0,0.179 -0.0327,1.44993 0,1.51523 0.0532,0.10648 0.1993,0.14606 0.25254,0.25253 0.0384,0.0769 0,0.64389 0,0.75762 0,0.58925 0,1.17851 0,1.76777 0,1.43105 0,2.86209 0,4.29314 0,0.0927 -0.0102,0.99999 0,1.01016 0.0595,0.0595 0.19301,-0.0595 0.25253,0 0.0887,0.0886 -0.0872,1.08825 0,1.26269 0.0532,0.10648 0.1993,0.14606 0.25254,0.25254 0.0376,0.0753 0,0.16835 0,0.25253 0,0.16836 0,0.33672 0,0.50508 0,0.4209 0,0.84179 0,1.26269 0,1.68359 0,3.36718 0,5.05076 0,1.17851 0,2.35703 0,3.53554 0,0.0842 0,0.16836 0,0.25254 0,0.0842 0.0595,0.19301 0,0.25253 -0.0595,0.0595 -0.19301,-0.0595 -0.25254,0 -0.0595,0.0595 0,0.16836 0,0.25254 0,0.0842 0,0.16836 0,0.25254 0,0.50508 0,1.01015 0,1.51523 0,0.0842 0,0.16836 0,0.25254 0,0.0842 0.0376,0.17724 0,0.25253 -0.0532,0.10648 -0.19929,0.14606 -0.25253,0.25254 -0.0457,0.0913 0,1.08704 0,1.26269 0,0.11908 0.0114,1.25125 0,1.26269 -0.0595,0.0595 -0.19302,-0.0595 -0.25254,0 -0.0595,0.0595 0,0.16836 0,0.25254 0,0.17565 0.0457,1.17137 0,1.26269 -0.0532,0.10648 -0.1993,0.14606 -0.25254,0.25254 -0.0753,0.15059 0.11905,0.38603 0,0.50508 -0.0595,0.0595 -0.19301,-0.0595 -0.25254,0 -0.0516,0.0516 0.0501,0.65748 0,0.75761 -0.0532,0.10648 -0.1993,0.14606 -0.25254,0.25254 -0.0501,0.10013 0.0516,0.70599 0,0.75761 -0.0595,0.0595 -0.19301,-0.0595 -0.25253,0 -0.0841,0.0841 0.0841,0.42095 0,0.50508 -0.0595,0.0595 -0.19302,-0.0595 -0.25254,0 -0.0102,0.0102 0,0.91741 0,1.01015"
       id="path5469-6-1-2-3-6"
       inkscape:connector-curvature="0"
       clip-path="url(#clipPath5670)"
       inkscape:export-filename="C:\Users\Sam\Documents\Projects\Runner\unfinishedart\crate.png"
       inkscape:export-xdpi="18.931799"
       inkscape:export-ydpi="18.931799" />
    <path
       style="fill:none;stroke:#d4aa00;stroke-width:1px;stroke-linecap:butt;stroke-linejoin:miter;stroke-opacity:1;display:inline"
       d="m 206.07112,61.781333 c 0,0.505076 0,1.010152 0,1.515229 0,0.08418 -0.0595,0.193014 0,0.252538 0.0595,0.05952 0.19302,-0.05952 0.25254,0 0.0782,0.0782 -0.0782,1.184493 0,1.26269 0.0595,0.05952 0.19301,-0.05952 0.25254,0 0.0595,0.05952 0,0.168359 0,0.252539 0,0.420897 0,0.841793 0,1.26269 0,0.08418 -0.0595,0.193015 0,0.252538 0.0595,0.05952 0.19301,-0.05952 0.25254,0 0.0595,0.05952 0,0.168359 0,0.252539 0,0.08418 0,0.168358 0,0.252538 0,0.505076 0,1.010152 0,1.515229 0,0.08418 0,0.168358 0,0.252538 0,0.08418 -0.0376,0.177245 0,0.252538 0.0532,0.106479 0.19929,0.146059 0.25253,0.252538 0.0376,0.07529 0,0.168359 0,0.252538 0,0.179 -0.0326,1.449935 0,1.515229 0.0532,0.106479 0.1993,0.146059 0.25254,0.252538 0.0376,0.07529 0,0.168359 0,0.252538 0,0.179 -0.0327,1.449935 0,1.515229 0.0532,0.106479 0.1993,0.146059 0.25254,0.252538 0.0376,0.07529 0,0.168359 0,0.252538 0,0.08418 0,0.168359 0,0.252538 0,0.505077 0,1.010153 0,1.515229 0,0.08418 0,0.168359 0,0.252538 0,0.08418 -0.0595,0.193015 0,0.252539 0.0595,0.05952 0.19301,-0.05952 0.25254,0 0.0595,0.05952 0,0.168358 0,0.252538 0,0.420897 0,0.841793 0,1.26269 0,0.673435 0,1.34687 0,2.020305 0,0.08418 -0.0595,0.193015 0,0.252539 0.0595,0.05952 0.19301,-0.05952 0.25254,0 0.0595,0.05952 0,0.168358 0,0.252538 0,0.08418 0,0.168358 0,0.252538 0,1.178511 0,2.357022 0,3.535534 0,0.09274 -0.0102,0.99999 0,1.010152 0.0595,0.05952 0.19301,-0.05952 0.25253,0 0.0595,0.05952 0,0.168359 0,0.252538 0,0.168359 0,0.336718 0,0.505077 0,1.599408 0,3.198816 0,4.798224 0,1.34687 0,2.69374 0,4.04061 0,0.06125 -0.008,0.749493 0,0.757615 0.0595,0.05952 0.19302,-0.05952 0.25254,0 0.0102,0.01016 0,0.917411 0,1.010152 0,2.104485 0,4.208971 0,6.313461 0,2.60956 0,5.21912 0,7.82868 0,0.92598 0,1.85195 0,2.77792 0,0.2257 0.0402,1.18222 0,1.26269 -0.0532,0.10648 -0.1993,0.14606 -0.25254,0.25254 -0.0376,0.0753 0,0.16836 0,0.25254 0,0.16836 0,0.33672 0,0.50508 0,0.41107 0.0343,0.85138 0,1.26269 -0.0772,0.92658 -0.18629,1.85049 -0.25253,2.77792 -0.0353,0.49378 0,1.01664 0,1.51522 0,0.92598 0,1.85195 0,2.77792 0,0.0613 0.008,0.7495 0,0.75762 -0.0595,0.0595 -0.19302,-0.0595 -0.25254,0 -0.0595,0.0595 0,0.16836 0,0.25254 0,0.33671 0,0.67343 0,1.01015 0,0.0842 0.0595,0.19301 0,0.25254 -0.0595,0.0595 -0.19302,-0.0595 -0.25254,0 -0.0595,0.0595 0,0.16836 0,0.25254 0,0.0842 0,0.16835 0,0.25253 0,1.17852 0,2.35703 0,3.53554 0,0.0842 0,0.16836 0,0.25254 0,0.0842 0.0595,0.19301 0,0.25253 -0.0595,0.0595 -0.19301,-0.0595 -0.25254,0 -0.0102,0.0102 0,0.91742 0,1.01016 0,0.84179 0,1.68358 0,2.52538 0,0.35513 0.055,0.93285 0,1.26269 -0.0706,0.42339 -0.18197,0.8393 -0.25254,1.26269 -0.0348,0.20913 0.0593,0.89161 0,1.01015 -0.0532,0.10648 -0.21489,0.1396 -0.25253,0.25254 -0.0482,0.1447 0,1.0256 0,1.26269 0,0.92597 0,1.85195 0,2.77792 0,0.2257 0.0402,1.18221 0,1.26269 -0.0532,0.10648 -0.2149,0.1396 -0.25254,0.25254 -0.0799,0.23958 0,0.50508 0,0.75761 0,0.58926 0,1.17851 0,1.76777 0,0.25254 0.0799,0.51804 0,0.75761 -0.0376,0.11294 -0.1993,0.14606 -0.25254,0.25254 -0.0402,0.0805 0,1.03699 0,1.26269 0,0.8418 0,1.68359 0,2.52538 0,1.93613 0,3.87226 0,5.80838 0,2.27285 0,4.54569 0,6.81855 0,0.8418 0,1.68359 0,2.52538 0,0.13206 -0.0332,0.94375 0,1.01016 0.0532,0.10648 0.1993,0.14605 0.25254,0.25253 0.0384,0.0769 0,0.64389 0,0.75762 0,0.58925 0,1.17851 0,1.76777 0,0.25253 0,0.50507 0,0.75761 0,0.0842 -0.0266,0.17268 0,0.25254 0.0595,0.17857 0.19301,0.3265 0.25254,0.50507 0.0678,0.20327 -0.0807,0.84878 0,1.01016 0.0532,0.10648 0.19929,0.14606 0.25253,0.25253 0.044,0.0881 0,1.32985 0,1.51523 0,0.0842 -0.0376,0.17725 0,0.25254 0.0532,0.10648 0.1993,0.14606 0.25254,0.25254 0.0753,0.15058 -0.0532,0.34536 0,0.50508 0.0595,0.17857 0.19302,0.3265 0.25254,0.50507 0.0549,0.16482 0,1.21329 0,1.51523 0,0.0842 0,0.16836 0,0.25254 0,0.0842 -0.0595,0.19301 0,0.25254 0.0595,0.0595 0.19301,-0.0595 0.25254,0 0.0595,0.0595 0,0.16836 0,0.25254 0,0.0842 0,0.16835 0,0.25253 0,1.17851 0,2.35703 0,3.53554 0,0.179 -0.0327,1.44993 0,1.51523 0.0532,0.10648 0.1993,0.14606 0.25254,0.25253 0.0384,0.0769 0,0.64389 0,0.75762 0,0.58925 0,1.17851 0,1.76777 0,1.43105 0,2.86209 0,4.29314 0,0.0927 -0.0102,0.99999 0,1.01016 0.0595,0.0595 0.19301,-0.0595 0.25253,0 0.0887,0.0886 -0.0872,1.08825 0,1.26269 0.0532,0.10648 0.1993,0.14606 0.25254,0.25254 0.0376,0.0753 0,0.16835 0,0.25253 0,0.16836 0,0.33672 0,0.50508 0,0.4209 0,0.84179 0,1.26269 0,1.68359 0,3.36718 0,5.05076 0,1.17851 0,2.35703 0,3.53554 0,0.0842 0,0.16836 0,0.25254 0,0.0842 0.0595,0.19301 0,0.25253 -0.0595,0.0595 -0.19301,-0.0595 -0.25254,0 -0.0595,0.0595 0,0.16836 0,0.25254 0,0.0842 0,0.16836 0,0.25254 0,0.50508 0,1.01015 0,1.51523 0,0.0842 0,0.16836 0,0.25254 0,0.0842 0.0376,0.17724 0,0.25253 -0.0532,0.10648 -0.19929,0.14606 -0.25253,0.25254 -0.0457,0.0913 0,1.08704 0,1.26269 0,0.11908 0.0114,1.25125 0,1.26269 -0.0595,0.0595 -0.19302,-0.0595 -0.25254,0 -0.0595,0.0595 0,0.16836 0,0.25254 0,0.17565 0.0457,1.17137 0,1.26269 -0.0532,0.10648 -0.1993,0.14606 -0.25254,0.25254 -0.0753,0.15059 0.11905,0.38603 0,0.50508 -0.0595,0.0595 -0.19301,-0.0595 -0.25254,0 -0.0516,0.0516 0.0501,0.65748 0,0.75761 -0.0532,0.10648 -0.1993,0.14606 -0.25254,0.25254 -0.0501,0.10013 0.0516,0.70599 0,0.75761 -0.0595,0.0595 -0.19301,-0.0595 -0.25253,0 -0.0841,0.0841 0.0841,0.42095 0,0.50508 -0.0595,0.0595 -0.19302,-0.0595 -0.25254,0 -0.0102,0.0102 0,0.91741 0,1.01015"
       id="path5469-6-1-2-3-8"
       inkscape:connector-curvature="0"
       clip-path="url(#clipPath5666)"
       inkscape:export-filename="C:\Users\Sam\Documents\Projects\Runner\unfinishedart\crate.png"
       inkscape:export-xdpi="18.931799"
       inkscape:export-ydpi="18.931799" />
    <path
       style="fill:none;stroke:#d4aa00;stroke-width:2;stroke-linecap:butt;stroke-linejoin:miter;stroke-miterlimit:4;stroke-opacity:1;stroke-dasharray:none;display:inline"
       d="m 218.44549,61.276256 c 0,0.505076 0,1.010152 0,1.515229 0,0.08418 -0.0595,0.193014 0,0.252538 0.0595,0.05952 0.19302,-0.05952 0.25254,0 0.0782,0.0782 -0.0782,1.184493 0,1.26269 0.0595,0.05952 0.19301,-0.05952 0.25254,0 0.0595,0.05952 0,0.168359 0,0.252539 0,0.420897 0,0.841793 0,1.26269 0,0.08418 -0.0595,0.193015 0,0.252538 0.0595,0.05952 0.19301,-0.05952 0.25254,0 0.0595,0.05952 0,0.168359 0,0.252539 0,0.08418 0,0.168358 0,0.252538 0,0.505076 0,1.010152 0,1.515229 0,0.08418 0,0.168358 0,0.252538 0,0.08418 -0.0376,0.177245 0,0.252538 0.0532,0.106479 0.19929,0.146059 0.25253,0.252538 0.0376,0.07529 0,0.168359 0,0.252538 0,0.179 -0.0326,1.449935 0,1.515229 0.0532,0.106479 0.1993,0.146059 0.25254,0.252538 0.0376,0.07529 0,0.168359 0,0.252538 0,0.179 -0.0327,1.449935 0,1.515229 0.0532,0.106479 0.1993,0.146059 0.25254,0.252538 0.0376,0.07529 0,0.168359 0,0.252538 0,0.08418 0,0.168359 0,0.252538 0,0.505077 0,1.010153 0,1.515229 0,0.08418 0,0.168359 0,0.252538 0,0.08418 -0.0595,0.193015 0,0.252539 0.0595,0.05952 0.19301,-0.05952 0.25254,0 0.0595,0.05952 0,0.168358 0,0.252538 0,0.420897 0,0.841793 0,1.26269 0,0.673435 0,1.34687 0,2.020305 0,0.08418 -0.0595,0.193015 0,0.252539 0.0595,0.05952 0.19301,-0.05952 0.25254,0 0.0595,0.05952 0,0.168358 0,0.252538 0,0.08418 0,0.168358 0,0.252538 0,1.178511 0,2.357022 0,3.535534 0,0.09274 -0.0102,0.99999 0,1.010152 0.0595,0.05952 0.19301,-0.05952 0.25253,0 0.0595,0.05952 0,0.168359 0,0.252538 0,0.168359 0,0.336718 0,0.505077 0,1.599408 0,3.198816 0,4.798224 0,1.34687 0,2.69374 0,4.04061 0,0.06125 -0.008,0.749493 0,0.757615 0.0595,0.05952 0.19302,-0.05952 0.25254,0 0.0102,0.01016 0,0.917411 0,1.010152 0,2.104485 0,4.20897 0,6.313458 0,2.60956 0,5.21912 0,7.82868 0,0.92598 0,1.85195 0,2.77792 0,0.2257 0.0402,1.18222 0,1.26269 -0.0532,0.10648 -0.1993,0.14606 -0.25254,0.25254 -0.0376,0.0753 0,0.16836 0,0.25254 0,0.16836 0,0.33672 0,0.50508 0,0.41107 0.0343,0.85138 0,1.26269 -0.0772,0.92658 -0.18629,1.85049 -0.25253,2.77792 -0.0353,0.49378 0,1.01664 0,1.51522 0,0.92598 0,1.85195 0,2.77792 0,0.0613 0.008,0.7495 0,0.75762 -0.0595,0.0595 -0.19302,-0.0595 -0.25254,0 -0.0595,0.0595 0,0.16836 0,0.25254 0,0.33671 0,0.67343 0,1.01015 0,0.0842 0.0595,0.19301 0,0.25254 -0.0595,0.0595 -0.19302,-0.0595 -0.25254,0 -0.0595,0.0595 0,0.16836 0,0.25254 0,0.0842 0,0.16835 0,0.25253 0,1.17852 0,2.35703 0,3.53554 0,0.0842 0,0.16836 0,0.25254 0,0.0842 0.0595,0.19301 0,0.25253 -0.0595,0.0595 -0.19301,-0.0595 -0.25254,0 -0.0102,0.0102 0,0.91742 0,1.01016 0,0.84179 0,1.68358 0,2.52538 0,0.35513 0.055,0.93285 0,1.26269 -0.0706,0.42339 -0.18197,0.8393 -0.25254,1.26269 -0.0348,0.20913 0.0593,0.89161 0,1.01015 -0.0532,0.10648 -0.21489,0.1396 -0.25253,0.25254 -0.0482,0.1447 0,1.0256 0,1.26269 0,0.92597 0,1.85195 0,2.77792 0,0.2257 0.0402,1.18221 0,1.26269 -0.0532,0.10648 -0.2149,0.1396 -0.25254,0.25254 -0.0799,0.23958 0,0.50508 0,0.75761 0,0.58926 0,1.17851 0,1.76777 0,0.25254 0.0799,0.51804 0,0.75761 -0.0376,0.11294 -0.1993,0.14606 -0.25254,0.25254 -0.0402,0.0805 0,1.03699 0,1.26269 0,0.8418 0,1.68359 0,2.52538 0,1.93613 0,3.87226 0,5.80838 0,2.27285 0,4.54569 0,6.81855 0,0.8418 0,1.68359 0,2.52538 0,0.13206 -0.0332,0.94375 0,1.01016 0.0532,0.10648 0.1993,0.14605 0.25254,0.25253 0.0384,0.0769 0,0.64389 0,0.75762 0,0.58925 0,1.17851 0,1.76777 0,0.25253 0,0.50507 0,0.75761 0,0.0842 -0.0266,0.17268 0,0.25254 0.0595,0.17857 0.19301,0.3265 0.25254,0.50507 0.0678,0.20327 -0.0807,0.84878 0,1.01016 0.0532,0.10648 0.19929,0.14606 0.25253,0.25253 0.044,0.0881 0,1.32985 0,1.51523 0,0.0842 -0.0376,0.17725 0,0.25254 0.0532,0.10648 0.1993,0.14606 0.25254,0.25254 0.0753,0.15058 -0.0532,0.34536 0,0.50508 0.0595,0.17857 0.19302,0.3265 0.25254,0.50507 0.0549,0.16482 0,1.21329 0,1.51523 0,0.0842 0,0.16836 0,0.25254 0,0.0842 -0.0595,0.19301 0,0.25254 0.0595,0.0595 0.19301,-0.0595 0.25254,0 0.0595,0.0595 0,0.16836 0,0.25254 0,0.0842 0,0.16835 0,0.25253 0,1.17851 0,2.35703 0,3.53554 0,0.179 -0.0327,1.44993 0,1.51523 0.0532,0.10648 0.1993,0.14606 0.25254,0.25253 0.0384,0.0769 0,0.64389 0,0.75762 0,0.58925 0,1.17851 0,1.76777 0,1.43105 0,2.86209 0,4.29314 0,0.0927 -0.0102,0.99999 0,1.01016 0.0595,0.0595 0.19301,-0.0595 0.25253,0 0.0887,0.0886 -0.0872,1.08825 0,1.26269 0.0532,0.10648 0.1993,0.14606 0.25254,0.25254 0.0376,0.0753 0,0.16835 0,0.25253 0,0.16836 0,0.33672 0,0.50508 0,0.4209 0,0.84179 0,1.26269 0,1.68359 0,3.36718 0,5.05076 0,1.17851 0,2.35703 0,3.53554 0,0.0842 0,0.16836 0,0.25254 0,0.0842 0.0595,0.19301 0,0.25253 -0.0595,0.0595 -0.19301,-0.0595 -0.25254,0 -0.0595,0.0595 0,0.16836 0,0.25254 0,0.0842 0,0.16836 0,0.25254 0,0.50508 0,1.01015 0,1.51523 0,0.0842 0,0.16836 0,0.25254 0,0.0842 0.0376,0.17724 0,0.25253 -0.0532,0.10648 -0.19929,0.14606 -0.25253,0.25254 -0.0457,0.0913 0,1.08704 0,1.26269 0,0.11908 0.0114,1.25125 0,1.26269 -0.0595,0.0595 -0.19302,-0.0595 -0.25254,0 -0.0595,0.0595 0,0.16836 0,0.25254 0,0.17565 0.0457,1.17137 0,1.26269 -0.0532,0.10648 -0.1993,0.14606 -0.25254,0.25254 -0.0753,0.15059 0.11905,0.38603 0,0.50508 -0.0595,0.0595 -0.19301,-0.0595 -0.25254,0 -0.0516,0.0516 0.0501,0.65748 0,0.75761 -0.0532,0.10648 -0.1993,0.14606 -0.25254,0.25254 -0.0501,0.10013 0.0516,0.70599 0,0.75761 -0.0595,0.0595 -0.19301,-0.0595 -0.25253,0 -0.0841,0.0841 0.0841,0.42095 0,0.50508 -0.0595,0.0595 -0.19302,-0.0595 -0.25254,0 -0.0102,0.0102 0,0.91741 0,1.01015"
       id="path5469-6-1-2-3-5"
       inkscape:connector-curvature="0"
       clip-path="url(#clipPath5662)"
       inkscape:export-filename="C:\Users\Sam\Documents\Projects\Runner\unfinishedart\crate.png"
       inkscape:export-xdpi="18.931799"
       inkscape:export-ydpi="18.931799" />
    <path
       style="fill:none;stroke:#d4aa00;stroke-width:1px;stroke-linecap:butt;stroke-linejoin:miter;stroke-opacity:1;display:inline"
       d="m 228.04193,61.781334 c 0,0.505076 0,1.010152 0,1.515229 0,0.08418 -0.0595,0.193014 0,0.252538 0.0595,0.05952 0.19302,-0.05952 0.25254,0 0.0782,0.0782 -0.0782,1.184493 0,1.26269 0.0595,0.05952 0.19301,-0.05952 0.25254,0 0.0595,0.05952 0,0.168359 0,0.252539 0,0.420897 0,0.841793 0,1.26269 0,0.08418 -0.0595,0.193015 0,0.252538 0.0595,0.05952 0.19301,-0.05952 0.25254,0 0.0595,0.05952 0,0.168359 0,0.252539 0,0.08418 0,0.168358 0,0.252538 0,0.505076 0,1.010152 0,1.515229 0,0.08418 0,0.168358 0,0.252538 0,0.08418 -0.0376,0.177245 0,0.252538 0.0532,0.106479 0.19929,0.146059 0.25253,0.252538 0.0376,0.07529 0,0.168359 0,0.252538 0,0.179 -0.0326,1.449935 0,1.515229 0.0532,0.106479 0.1993,0.146059 0.25254,0.252538 0.0376,0.07529 0,0.168359 0,0.252538 0,0.179 -0.0327,1.449935 0,1.515229 0.0532,0.106479 0.1993,0.146059 0.25254,0.252538 0.0376,0.07529 0,0.168359 0,0.252538 0,0.08418 0,0.168359 0,0.252538 0,0.505077 0,1.010153 0,1.515229 0,0.08418 0,0.168359 0,0.252538 0,0.08418 -0.0595,0.193015 0,0.252539 0.0595,0.05952 0.19301,-0.05952 0.25254,0 0.0595,0.05952 0,0.168358 0,0.252538 0,0.420897 0,0.841793 0,1.26269 0,0.673435 0,1.34687 0,2.020305 0,0.08418 -0.0595,0.193015 0,0.252539 0.0595,0.05952 0.19301,-0.05952 0.25254,0 0.0595,0.05952 0,0.168358 0,0.252538 0,0.08418 0,0.168358 0,0.252538 0,1.178511 0,2.357022 0,3.535534 0,0.09274 -0.0102,0.99999 0,1.010152 0.0595,0.05952 0.19301,-0.05952 0.25253,0 0.0595,0.05952 0,0.168359 0,0.252538 0,0.168359 0,0.336718 0,0.505077 0,1.599408 0,3.198816 0,4.798224 0,1.34687 0,2.69374 0,4.04061 0,0.06125 -0.008,0.749493 0,0.757615 0.0595,0.05952 0.19302,-0.05952 0.25254,0 0.0102,0.01016 0,0.917411 0,1.010152 0,2.104485 0,4.20897 0,6.31346 0,2.60956 0,5.21912 0,7.82868 0,0.92598 0,1.85195 0,2.77792 0,0.2257 0.0402,1.18222 0,1.26269 -0.0532,0.10648 -0.1993,0.14606 -0.25254,0.25254 -0.0376,0.0753 0,0.16836 0,0.25254 0,0.16836 0,0.33672 0,0.50508 0,0.41107 0.0343,0.85138 0,1.26269 -0.0772,0.92658 -0.18629,1.85049 -0.25253,2.77792 -0.0353,0.49378 0,1.01664 0,1.51522 0,0.92598 0,1.85195 0,2.77792 0,0.0613 0.008,0.7495 0,0.75762 -0.0595,0.0595 -0.19302,-0.0595 -0.25254,0 -0.0595,0.0595 0,0.16836 0,0.25254 0,0.33671 0,0.67343 0,1.01015 0,0.0842 0.0595,0.19301 0,0.25254 -0.0595,0.0595 -0.19302,-0.0595 -0.25254,0 -0.0595,0.0595 0,0.16836 0,0.25254 0,0.0842 0,0.16835 0,0.25253 0,1.17852 0,2.35703 0,3.53554 0,0.0842 0,0.16836 0,0.25254 0,0.0842 0.0595,0.19301 0,0.25253 -0.0595,0.0595 -0.19301,-0.0595 -0.25254,0 -0.0102,0.0102 0,0.91742 0,1.01016 0,0.84179 0,1.68358 0,2.52538 0,0.35513 0.055,0.93285 0,1.26269 -0.0706,0.42339 -0.18197,0.8393 -0.25254,1.26269 -0.0348,0.20913 0.0593,0.89161 0,1.01015 -0.0532,0.10648 -0.21489,0.1396 -0.25253,0.25254 -0.0482,0.1447 0,1.0256 0,1.26269 0,0.92597 0,1.85195 0,2.77792 0,0.2257 0.0402,1.18221 0,1.26269 -0.0532,0.10648 -0.2149,0.1396 -0.25254,0.25254 -0.0799,0.23958 0,0.50508 0,0.75761 0,0.58926 0,1.17851 0,1.76777 0,0.25254 0.0799,0.51804 0,0.75761 -0.0376,0.11294 -0.1993,0.14606 -0.25254,0.25254 -0.0402,0.0805 0,1.03699 0,1.26269 0,0.8418 0,1.68359 0,2.52538 0,1.93613 0,3.87226 0,5.80838 0,2.27285 0,4.54569 0,6.81854 0,0.8418 0,1.68359 0,2.52538 0,0.13206 -0.0332,0.94375 0,1.01016 0.0532,0.10648 0.1993,0.14605 0.25254,0.25253 0.0384,0.0769 0,0.64389 0,0.75762 0,0.58925 0,1.17851 0,1.76777 0,0.25253 0,0.50507 0,0.75761 0,0.0842 -0.0266,0.17268 0,0.25254 0.0595,0.17857 0.19301,0.3265 0.25254,0.50507 0.0678,0.20327 -0.0807,0.84878 0,1.01016 0.0532,0.10648 0.19929,0.14606 0.25253,0.25253 0.044,0.0881 0,1.32985 0,1.51523 0,0.0842 -0.0376,0.17725 0,0.25254 0.0532,0.10648 0.1993,0.14606 0.25254,0.25254 0.0753,0.15058 -0.0532,0.34536 0,0.50508 0.0595,0.17857 0.19302,0.3265 0.25254,0.50507 0.0549,0.16482 0,1.21329 0,1.51523 0,0.0842 0,0.16836 0,0.25254 0,0.0842 -0.0595,0.19301 0,0.25254 0.0595,0.0595 0.19301,-0.0595 0.25254,0 0.0595,0.0595 0,0.16836 0,0.25254 0,0.0842 0,0.16835 0,0.25253 0,1.17851 0,2.35703 0,3.53554 0,0.179 -0.0327,1.44993 0,1.51523 0.0532,0.10648 0.1993,0.14606 0.25254,0.25253 0.0384,0.0769 0,0.64389 0,0.75762 0,0.58925 0,1.17851 0,1.76777 0,1.43105 0,2.86209 0,4.29314 0,0.0927 -0.0102,0.99999 0,1.01016 0.0595,0.0595 0.19301,-0.0595 0.25253,0 0.0887,0.0886 -0.0872,1.08825 0,1.26269 0.0532,0.10648 0.1993,0.14606 0.25254,0.25254 0.0376,0.0753 0,0.16835 0,0.25253 0,0.16836 0,0.33672 0,0.50508 0,0.4209 0,0.84179 0,1.26269 0,1.68359 0,3.36718 0,5.05076 0,1.17851 0,2.35703 0,3.53554 0,0.0842 0,0.16836 0,0.25254 0,0.0842 0.0595,0.19301 0,0.25253 -0.0595,0.0595 -0.19301,-0.0595 -0.25254,0 -0.0595,0.0595 0,0.16836 0,0.25254 0,0.0842 0,0.16836 0,0.25254 0,0.50508 0,1.01015 0,1.51523 0,0.0842 0,0.16836 0,0.25254 0,0.0842 0.0376,0.17724 0,0.25253 -0.0532,0.10648 -0.19929,0.14606 -0.25253,0.25254 -0.0457,0.0913 0,1.08704 0,1.26269 0,0.11908 0.0114,1.25125 0,1.26269 -0.0595,0.0595 -0.19302,-0.0595 -0.25254,0 -0.0595,0.0595 0,0.16836 0,0.25254 0,0.17565 0.0457,1.17137 0,1.26269 -0.0532,0.10648 -0.1993,0.14606 -0.25254,0.25254 -0.0753,0.15059 0.11905,0.38603 0,0.50508 -0.0595,0.0595 -0.19301,-0.0595 -0.25254,0 -0.0516,0.0516 0.0501,0.65748 0,0.75761 -0.0532,0.10648 -0.1993,0.14606 -0.25254,0.25254 -0.0501,0.10013 0.0516,0.70599 0,0.75761 -0.0595,0.0595 -0.19301,-0.0595 -0.25253,0 -0.0841,0.0841 0.0841,0.42095 0,0.50508 -0.0595,0.0595 -0.19302,-0.0595 -0.25254,0 -0.0102,0.0102 0,0.91741 0,1.01015"
       id="path5469-6-1-2-3-7"
       inkscape:connector-curvature="0"
       clip-path="url(#clipPath5658)"
       inkscape:export-filename="C:\Users\Sam\Documents\Projects\Runner\unfinishedart\crate.png"
       inkscape:export-xdpi="18.931799"
       inkscape:export-ydpi="18.931799" />
    <path
       style="fill:none;stroke:#d4aa00;stroke-width:2;stroke-linecap:butt;stroke-linejoin:miter;stroke-miterlimit:4;stroke-opacity:1;stroke-dasharray:none;display:inline"
       d="m 241.42646,62.286409 c 0,0.505076 0,1.010152 0,1.515229 0,0.08418 -0.0595,0.193014 0,0.252538 0.0595,0.05952 0.19302,-0.05952 0.25254,0 0.0782,0.0782 -0.0782,1.184493 0,1.26269 0.0595,0.05952 0.19301,-0.05952 0.25254,0 0.0595,0.05952 0,0.168359 0,0.252539 0,0.420897 0,0.841793 0,1.26269 0,0.08418 -0.0595,0.193015 0,0.252538 0.0595,0.05952 0.19301,-0.05952 0.25254,0 0.0595,0.05952 0,0.168359 0,0.252539 0,0.08418 0,0.168358 0,0.252538 0,0.505076 0,1.010152 0,1.515229 0,0.08418 0,0.168358 0,0.252538 0,0.08418 -0.0376,0.177245 0,0.252538 0.0532,0.106479 0.19929,0.146059 0.25253,0.252538 0.0376,0.07529 0,0.168359 0,0.252538 0,0.179 -0.0326,1.449935 0,1.515229 0.0532,0.106479 0.1993,0.146059 0.25254,0.252538 0.0376,0.07529 0,0.168359 0,0.252538 0,0.179 -0.0327,1.449935 0,1.515229 0.0532,0.106479 0.1993,0.146059 0.25254,0.252538 0.0376,0.07529 0,0.168359 0,0.252538 0,0.08418 0,0.168359 0,0.252538 0,0.505077 0,1.010153 0,1.515229 0,0.08418 0,0.168359 0,0.252538 0,0.08418 -0.0595,0.193015 0,0.252539 0.0595,0.05952 0.19301,-0.05952 0.25254,0 0.0595,0.05952 0,0.168358 0,0.252538 0,0.420897 0,0.841793 0,1.26269 0,0.673435 0,1.34687 0,2.020305 0,0.08418 -0.0595,0.193015 0,0.252539 0.0595,0.05952 0.19301,-0.05952 0.25254,0 0.0595,0.05952 0,0.168358 0,0.252538 0,0.08418 0,0.168358 0,0.252538 0,1.178511 0,2.357022 0,3.535534 0,0.09274 -0.0102,0.99999 0,1.010152 0.0595,0.05952 0.19301,-0.05952 0.25253,0 0.0595,0.05952 0,0.168359 0,0.252538 0,0.168359 0,0.336718 0,0.505077 0,1.599408 0,3.198816 0,4.798224 0,1.34687 0,2.69374 0,4.04061 0,0.06125 -0.008,0.749493 0,0.757615 0.0595,0.05952 0.19302,-0.05952 0.25254,0 0.0102,0.01016 0,0.917411 0,1.010152 0,2.104485 0,4.208965 0,6.313465 0,2.60956 0,5.21912 0,7.82868 0,0.92598 0,1.85195 0,2.77792 0,0.2257 0.0402,1.18222 0,1.26269 -0.0532,0.10648 -0.1993,0.14606 -0.25254,0.25254 -0.0376,0.0753 0,0.16836 0,0.25254 0,0.16836 0,0.33672 0,0.50508 0,0.41107 0.0343,0.85138 0,1.26269 -0.0772,0.92658 -0.18629,1.85049 -0.25253,2.77792 -0.0353,0.49378 0,1.01664 0,1.51522 0,0.92598 0,1.85195 0,2.77792 0,0.0613 0.008,0.7495 0,0.75762 -0.0595,0.0595 -0.19302,-0.0595 -0.25254,0 -0.0595,0.0595 0,0.16836 0,0.25254 0,0.33671 0,0.67343 0,1.01015 0,0.0842 0.0595,0.19301 0,0.25254 -0.0595,0.0595 -0.19302,-0.0595 -0.25254,0 -0.0595,0.0595 0,0.16836 0,0.25254 0,0.0842 0,0.16835 0,0.25253 0,1.17852 0,2.35703 0,3.53554 0,0.0842 0,0.16836 0,0.25254 0,0.0842 0.0595,0.19301 0,0.25253 -0.0595,0.0595 -0.19301,-0.0595 -0.25254,0 -0.0102,0.0102 0,0.91742 0,1.01016 0,0.84179 0,1.68358 0,2.52538 0,0.35513 0.055,0.93285 0,1.26269 -0.0706,0.42339 -0.18197,0.8393 -0.25254,1.26269 -0.0348,0.20913 0.0593,0.89161 0,1.01015 -0.0532,0.10648 -0.21489,0.1396 -0.25253,0.25254 -0.0482,0.1447 0,1.0256 0,1.26269 0,0.92597 0,1.85195 0,2.77792 0,0.2257 0.0402,1.18221 0,1.26269 -0.0532,0.10648 -0.2149,0.1396 -0.25254,0.25254 -0.0799,0.23958 0,0.50508 0,0.75761 0,0.58926 0,1.17851 0,1.76777 0,0.25254 0.0799,0.51804 0,0.75761 -0.0376,0.11294 -0.1993,0.14606 -0.25254,0.25254 -0.0402,0.0805 0,1.03699 0,1.26269 0,0.8418 0,1.68359 0,2.52538 0,1.93613 0,3.87226 0,5.80838 0,2.27285 0,4.54569 0,6.81854 0,0.8418 0,1.68359 0,2.52538 0,0.13206 -0.0332,0.94375 0,1.01016 0.0532,0.10648 0.1993,0.14605 0.25254,0.25253 0.0384,0.0769 0,0.64389 0,0.75762 0,0.58925 0,1.17851 0,1.76777 0,0.25253 0,0.50507 0,0.75761 0,0.0842 -0.0266,0.17268 0,0.25254 0.0595,0.17857 0.19301,0.3265 0.25254,0.50507 0.0678,0.20327 -0.0807,0.84878 0,1.01016 0.0532,0.10648 0.19929,0.14606 0.25253,0.25253 0.044,0.0881 0,1.32985 0,1.51523 0,0.0842 -0.0376,0.17725 0,0.25254 0.0532,0.10648 0.1993,0.14606 0.25254,0.25254 0.0753,0.15058 -0.0532,0.34536 0,0.50508 0.0595,0.17857 0.19302,0.3265 0.25254,0.50507 0.0549,0.16482 0,1.21329 0,1.51523 0,0.0842 0,0.16836 0,0.25254 0,0.0842 -0.0595,0.19301 0,0.25254 0.0595,0.0595 0.19301,-0.0595 0.25254,0 0.0595,0.0595 0,0.16836 0,0.25254 0,0.0842 0,0.16835 0,0.25253 0,1.17851 0,2.35703 0,3.53554 0,0.179 -0.0327,1.44993 0,1.51523 0.0532,0.10648 0.1993,0.14606 0.25254,0.25253 0.0384,0.0769 0,0.64389 0,0.75762 0,0.58925 0,1.17851 0,1.76777 0,1.43105 0,2.86209 0,4.29314 0,0.0927 -0.0102,0.99999 0,1.01016 0.0595,0.0595 0.19301,-0.0595 0.25253,0 0.0887,0.0886 -0.0872,1.08825 0,1.26269 0.0532,0.10648 0.1993,0.14606 0.25254,0.25254 0.0376,0.0753 0,0.16835 0,0.25253 0,0.16836 0,0.33672 0,0.50508 0,0.4209 0,0.84179 0,1.26269 0,1.68359 0,3.36718 0,5.05076 0,1.17851 0,2.35703 0,3.53554 0,0.0842 0,0.16836 0,0.25254 0,0.0842 0.0595,0.19301 0,0.25253 -0.0595,0.0595 -0.19301,-0.0595 -0.25254,0 -0.0595,0.0595 0,0.16836 0,0.25254 0,0.0842 0,0.16836 0,0.25254 0,0.50508 0,1.01015 0,1.51523 0,0.0842 0,0.16836 0,0.25254 0,0.0842 0.0376,0.17724 0,0.25253 -0.0532,0.10648 -0.19929,0.14606 -0.25253,0.25254 -0.0457,0.0913 0,1.08704 0,1.26269 0,0.11908 0.0114,1.25125 0,1.26269 -0.0595,0.0595 -0.19302,-0.0595 -0.25254,0 -0.0595,0.0595 0,0.16836 0,0.25254 0,0.17565 0.0457,1.17137 0,1.26269 -0.0532,0.10648 -0.1993,0.14606 -0.25254,0.25254 -0.0753,0.15059 0.11905,0.38603 0,0.50508 -0.0595,0.0595 -0.19301,-0.0595 -0.25254,0 -0.0516,0.0516 0.0501,0.65748 0,0.75761 -0.0532,0.10648 -0.1993,0.14606 -0.25254,0.25254 -0.0501,0.10013 0.0516,0.70599 0,0.75761 -0.0595,0.0595 -0.19301,-0.0595 -0.25253,0 -0.0841,0.0841 0.0841,0.42095 0,0.50508 -0.0595,0.0595 -0.19302,-0.0595 -0.25254,0 -0.0102,0.0102 0,0.91741 0,1.01015"
       id="path5469-6-1-2-3-61"
       inkscape:connector-curvature="0"
       clip-path="url(#clipPath5654)"
       inkscape:export-filename="C:\Users\Sam\Documents\Projects\Runner\unfinishedart\crate.png"
       inkscape:export-xdpi="18.931799"
       inkscape:export-ydpi="18.931799" />
    <path
       style="fill:none;stroke:#d4aa00;stroke-width:1px;stroke-linecap:butt;stroke-linejoin:miter;stroke-opacity:1;display:inline"
       d="m 255.56859,62.538948 c 0,0.505076 0,1.010152 0,1.515229 0,0.08418 -0.0595,0.193014 0,0.252538 0.0595,0.05952 0.19302,-0.05952 0.25254,0 0.0782,0.0782 -0.0782,1.184493 0,1.26269 0.0595,0.05952 0.19301,-0.05952 0.25254,0 0.0595,0.05952 0,0.168359 0,0.252539 0,0.420897 0,0.841793 0,1.26269 0,0.08418 -0.0595,0.193015 0,0.252538 0.0595,0.05952 0.19301,-0.05952 0.25254,0 0.0595,0.05952 0,0.168359 0,0.252539 0,0.08418 0,0.168358 0,0.252538 0,0.505076 0,1.010152 0,1.515229 0,0.08418 0,0.168358 0,0.252538 0,0.08418 -0.0376,0.177245 0,0.252538 0.0532,0.106479 0.19929,0.146059 0.25253,0.252538 0.0376,0.07529 0,0.168359 0,0.252538 0,0.179 -0.0326,1.449935 0,1.515229 0.0532,0.106479 0.1993,0.146059 0.25254,0.252538 0.0376,0.07529 0,0.168359 0,0.252538 0,0.179 -0.0327,1.449935 0,1.515229 0.0532,0.106479 0.1993,0.146059 0.25254,0.252538 0.0376,0.07529 0,0.168359 0,0.252538 0,0.08418 0,0.168359 0,0.252538 0,0.505077 0,1.010153 0,1.515229 0,0.08418 0,0.168359 0,0.252538 0,0.08418 -0.0595,0.193015 0,0.252539 0.0595,0.05952 0.19301,-0.05952 0.25254,0 0.0595,0.05952 0,0.168358 0,0.252538 0,0.420897 0,0.841793 0,1.26269 0,0.673435 0,1.34687 0,2.020305 0,0.08418 -0.0595,0.193015 0,0.252539 0.0595,0.05952 0.19301,-0.05952 0.25254,0 0.0595,0.05952 0,0.168358 0,0.252538 0,0.08418 0,0.168358 0,0.252538 0,1.178511 0,2.357022 0,3.535534 0,0.09274 -0.0102,0.99999 0,1.010152 0.0595,0.05952 0.19301,-0.05952 0.25253,0 0.0595,0.05952 0,0.168359 0,0.252538 0,0.168359 0,0.336718 0,0.505077 0,1.599408 0,3.198816 0,4.798224 0,1.34687 0,2.69374 0,4.04061 0,0.06125 -0.008,0.749493 0,0.757615 0.0595,0.05952 0.19302,-0.05952 0.25254,0 0.0102,0.01016 0,0.917411 0,1.010152 0,2.104485 0,4.208966 0,6.313456 0,2.60956 0,5.21912 0,7.82868 0,0.92598 0,1.85195 0,2.77792 0,0.2257 0.0402,1.18223 0,1.2627 -0.0532,0.10648 -0.1993,0.14606 -0.25254,0.25254 -0.0376,0.0753 0,0.16836 0,0.25254 0,0.16836 0,0.33672 0,0.50508 0,0.41107 0.0343,0.85138 0,1.26269 -0.0772,0.92658 -0.18629,1.85049 -0.25253,2.77792 -0.0353,0.49378 0,1.01664 0,1.51522 0,0.92598 0,1.85195 0,2.77792 0,0.0613 0.008,0.7495 0,0.75762 -0.0595,0.0595 -0.19302,-0.0595 -0.25254,0 -0.0595,0.0595 0,0.16836 0,0.25254 0,0.33671 0,0.67343 0,1.01015 0,0.0842 0.0595,0.19301 0,0.25254 -0.0595,0.0595 -0.19302,-0.0595 -0.25254,0 -0.0595,0.0595 0,0.16836 0,0.25254 0,0.0842 0,0.16835 0,0.25253 0,1.17852 0,2.35703 0,3.53554 0,0.0842 0,0.16836 0,0.25254 0,0.0842 0.0595,0.19301 0,0.25253 -0.0595,0.0595 -0.19301,-0.0595 -0.25254,0 -0.0102,0.0102 0,0.91742 0,1.01016 0,0.84179 0,1.68358 0,2.52538 0,0.35513 0.055,0.93285 0,1.26269 -0.0706,0.42339 -0.18197,0.8393 -0.25254,1.26269 -0.0348,0.20913 0.0593,0.89161 0,1.01015 -0.0532,0.10648 -0.21489,0.1396 -0.25253,0.25254 -0.0482,0.1447 0,1.0256 0,1.26269 0,0.92597 0,1.85195 0,2.77792 0,0.2257 0.0402,1.18221 0,1.26269 -0.0532,0.10648 -0.2149,0.1396 -0.25254,0.25254 -0.0799,0.23958 0,0.50508 0,0.75761 0,0.58926 0,1.17851 0,1.76777 0,0.25254 0.0799,0.51804 0,0.75761 -0.0376,0.11294 -0.1993,0.14606 -0.25254,0.25254 -0.0402,0.0805 0,1.03699 0,1.26269 0,0.8418 0,1.68359 0,2.52538 0,1.93613 0,3.87226 0,5.80838 0,2.27285 0,4.54569 0,6.81854 0,0.8418 0,1.68359 0,2.52538 0,0.13206 -0.0332,0.94375 0,1.01016 0.0532,0.10648 0.1993,0.14605 0.25254,0.25253 0.0384,0.0769 0,0.64389 0,0.75762 0,0.58925 0,1.17851 0,1.76777 0,0.25253 0,0.50507 0,0.75761 0,0.0842 -0.0266,0.17268 0,0.25254 0.0595,0.17857 0.19301,0.3265 0.25254,0.50507 0.0678,0.20327 -0.0807,0.84878 0,1.01016 0.0532,0.10648 0.19929,0.14606 0.25253,0.25253 0.044,0.0881 0,1.32985 0,1.51523 0,0.0842 -0.0376,0.17725 0,0.25254 0.0532,0.10648 0.1993,0.14606 0.25254,0.25254 0.0753,0.15058 -0.0532,0.34536 0,0.50508 0.0595,0.17857 0.19302,0.3265 0.25254,0.50507 0.0549,0.16482 0,1.21329 0,1.51523 0,0.0842 0,0.16836 0,0.25254 0,0.0842 -0.0595,0.19301 0,0.25254 0.0595,0.0595 0.19301,-0.0595 0.25254,0 0.0595,0.0595 0,0.16836 0,0.25254 0,0.0842 0,0.16835 0,0.25253 0,1.17851 0,2.35703 0,3.53554 0,0.179 -0.0327,1.44993 0,1.51523 0.0532,0.10648 0.1993,0.14606 0.25254,0.25253 0.0384,0.0769 0,0.64389 0,0.75762 0,0.58925 0,1.17851 0,1.76777 0,1.43105 0,2.86209 0,4.29314 0,0.0927 -0.0102,0.99999 0,1.01016 0.0595,0.0595 0.19301,-0.0595 0.25253,0 0.0887,0.0886 -0.0872,1.08825 0,1.26269 0.0532,0.10648 0.1993,0.14606 0.25254,0.25254 0.0376,0.0753 0,0.16835 0,0.25253 0,0.16836 0,0.33672 0,0.50508 0,0.4209 0,0.84179 0,1.26269 0,1.68359 0,3.36718 0,5.05076 0,1.17851 0,2.35703 0,3.53554 0,0.0842 0,0.16836 0,0.25254 0,0.0842 0.0595,0.19301 0,0.25253 -0.0595,0.0595 -0.19301,-0.0595 -0.25254,0 -0.0595,0.0595 0,0.16836 0,0.25254 0,0.0842 0,0.16836 0,0.25254 0,0.50508 0,1.01015 0,1.51523 0,0.0842 0,0.16836 0,0.25254 0,0.0842 0.0376,0.17724 0,0.25253 -0.0532,0.10648 -0.19929,0.14606 -0.25253,0.25254 -0.0457,0.0913 0,1.08704 0,1.26269 0,0.11908 0.0114,1.25125 0,1.26269 -0.0595,0.0595 -0.19302,-0.0595 -0.25254,0 -0.0595,0.0595 0,0.16836 0,0.25254 0,0.17565 0.0457,1.17137 0,1.26269 -0.0532,0.10648 -0.1993,0.14606 -0.25254,0.25254 -0.0753,0.15059 0.11905,0.38603 0,0.50508 -0.0595,0.0595 -0.19301,-0.0595 -0.25254,0 -0.0516,0.0516 0.0501,0.65748 0,0.75761 -0.0532,0.10648 -0.1993,0.14606 -0.25254,0.25254 -0.0501,0.10013 0.0516,0.70599 0,0.75761 -0.0595,0.0595 -0.19301,-0.0595 -0.25253,0 -0.0841,0.0841 0.0841,0.42095 0,0.50508 -0.0595,0.0595 -0.19302,-0.0595 -0.25254,0 -0.0102,0.0102 0,0.91741 0,1.01015"
       id="path5469-6-1-2-3-89"
       inkscape:connector-curvature="0"
       clip-path="url(#clipPath5650)"
       inkscape:export-filename="C:\Users\Sam\Documents\Projects\Runner\unfinishedart\crate.png"
       inkscape:export-xdpi="18.931799"
       inkscape:export-ydpi="18.931799" />
  </g>
  <g
     inkscape:label="Layer 1"
     inkscape:groupmode="layer"
     id="layer1"
     style="display:inline">
    <path
       style="color:#000000;fill:#d45500;stroke:#d45500;stroke-width:1.99015141;stroke-linecap:butt;stroke-linejoin:miter;stroke-miterlimit:4;stroke-opacity:1;stroke-dasharray:none;stroke-dashoffset:638.64723206;marker:none;visibility:visible;display:inline;overflow:visible;enable-background:accumulate"
       d="M 244.12768,84.626011 261.54075,97.376485 129.78192,193.85493 112.36884,181.10445 z"
       id="rect2985-7-4"
       inkscape:connector-curvature="0"
       clip-path="url(#clipPath3855)"
       inkscape:export-filename="C:\Users\Sam\Documents\Projects\Runner\unfinishedart\crate.png"
       inkscape:export-xdpi="18.931799"
       inkscape:export-ydpi="18.931799" />
    <path
       transform="matrix(-1,0,0,1,374.26154,-2.6801454e-6)"
       style="color:#000000;fill:#ff6600;stroke:#d45500;stroke-width:1.99015141;stroke-linecap:butt;stroke-linejoin:miter;stroke-miterlimit:4;stroke-opacity:1;stroke-dasharray:none;stroke-dashoffset:638.64723206;marker:none;visibility:visible;display:inline;overflow:visible;enable-background:accumulate"
       d="M 244.12768,84.626011 261.54075,97.376485 129.78192,193.85493 112.36884,181.10445 z"
       id="rect2985-7-4-4"
       inkscape:connector-curvature="0"
       clip-path="url(#clipPath3855-8)"
       inkscape:export-filename="C:\Users\Sam\Documents\Projects\Runner\unfinishedart\crate.png"
       inkscape:export-xdpi="18.931799"
       inkscape:export-ydpi="18.931799" />
    <path
       transform="matrix(-1,0,0,1,374.26154,-2.6801454e-6)"
       style="color:#000000;fill:#ff6600;stroke:#d45500;stroke-width:1.99015141;stroke-linecap:butt;stroke-linejoin:miter;stroke-miterlimit:4;stroke-opacity:1;stroke-dasharray:none;stroke-dashoffset:638.64723206;marker:none;visibility:visible;display:inline;overflow:visible;enable-background:accumulate"
       d="M 244.12768,84.626011 261.54075,97.376485 129.78192,193.85493 112.36884,181.10445 z"
       id="rect2985-7-4-4-1"
       inkscape:connector-curvature="0"
       clip-path="url(#clipPath3855-8-5)"
       inkscape:export-filename="C:\Users\Sam\Documents\Projects\Runner\unfinishedart\crate.png"
       inkscape:export-xdpi="18.931799"
       inkscape:export-ydpi="18.931799" />
  </g>
  <g
     inkscape:groupmode="layer"
     id="layer3"
     inkscape:label="innerRect"
     style="display:inline">
    <rect
       style="fill:none;stroke:#d45500;stroke-width:10;stroke-linecap:butt;stroke-linejoin:round;stroke-miterlimit:4;stroke-opacity:1;stroke-dasharray:none;stroke-dashoffset:638.64723206"
       id="rect2985-7"
       width="112.77036"
       height="112.77036"
       x="130.74559"
       y="82.041489"
       inkscape:export-xdpi="18.931799"
       inkscape:export-ydpi="18.931799"
       inkscape:export-filename="C:\Users\Sam\Documents\Projects\Runner\unfinishedart\crate.png" />
  </g>
</svg>
